<svg xmlns="http://www.w3.org/2000/svg" viewBox="0 0 60.38 129.43"><defs><style>.cls-1{fill:#480000;}.cls-2{fill:#cecece;}.cls-3{fill:#fcd680;}.cls-4{fill:#fdeabf;}</style></defs><g id="Capa_2" data-name="Capa 2"><g id="Capa_1-2" data-name="Capa 1"><path class="cls-1" d="M30.46,0C17.08.44,8,3.72,3.31,9.78S-.36,24.31,1.76,26.2C5.3,47.89,14.29,85,13.59,103.15c-.19,5.08-6.77,16.28-2.73,20.66,7.51,8.13,38,7.23,45-1.37,3.83-4.68-3.49-15.69-4-20.83-1.8-18.34,3.69-54.23,7-77.07C61.63,20.91,64.31-1,30.46,0Z"/><path class="cls-2" d="M56.17,26.62c-2.67,18.27-8.36,57.19-6.6,75.07.46,4.75,5.82,11.6,2.72,15.39-6.2,7.56-31.53,8.37-38.19,1.16-3.26-3.53,1.61-10.49,1.79-15.17a76.54,76.54,0,0,0-.3-9.27.78.78,0,0,1-.05-.56C13.88,73.94,7.25,44.52,4.63,27.83A15.08,15.08,0,0,1,2.93,27C6.56,48.77,15.3,85.13,14.61,103.18c-.2,5-6.49,16.2-3,20,7.11,7.7,36.79,6.78,43.43-1.32,3.34-4.08-3.7-15-4.2-20.15-1.76-17.87,3.33-52.06,6.84-76A8.65,8.65,0,0,1,56.17,26.62Z"/><path class="cls-3" d="M49.74,39.94c0-.38-.07-.75-.11-1.13,2.21-.1,3.08-.44,3.27,0C53.22,39.62,50.68,39.76,49.74,39.94Zm2.37,3.73c.27-.12.59-.61.12-.73s-.86.15-1.21.19c-.52,0-1,.07-1.55.09a5,5,0,0,1-.61,1.25A13.22,13.22,0,0,0,52.11,43.67ZM53,36.52c-.2-.32-.78-.09-1.06,0a20.12,20.12,0,0,1-2.69.15l.21,1.25C51.27,37.59,53.53,37.33,53,36.52Zm-1.69-2.18c-.81.06-1.61.06-2.42.1q.09.64.21,1.32c.44-.08,2.67-.43,3.47-.65a.45.45,0,0,0,.18-.82C52.47,34.06,51.72,34.31,51.35,34.34Zm.75,6.42a11.94,11.94,0,0,1-2.32.25,9,9,0,0,1-.06,1.17c1.61-.31,3.38-.77,3.12-1.37C52.67,40.45,52.35,40.69,52.1,40.76Zm-3.26-7.18c3-.48,4.28-.57,3.75-1.4-.18-.28-.49-.13-.76-.09-.87.13-2.08.12-3.06.16C48.77,32.56,48.78,32.92,48.84,33.58Zm-5.48-2.65a3,3,0,0,1,.86,1.1c-1.68.21-6.85.62-6.74.62a61.28,61.28,0,0,0,6.92-.15,6.93,6.93,0,0,1,.32,1.75c-1.48.18-6,.55-5.78.56a48.3,48.3,0,0,0,5.78-.1,14.1,14.1,0,0,1-.12,1.81c-2.22.26-5.17.42-4.61.46a38.49,38.49,0,0,0,4.56,0c-.1.74-.18,1.21-.27,1.82-2.06.22-4.82.38-4.3.42a35.24,35.24,0,0,0,4.24,0c-.08.59-.15,1.19-.18,1.79-2.1.24-4.95.41-4.41.44a35.68,35.68,0,0,0,4.39,0,8.86,8.86,0,0,0,.1,1.77c-2.16.26-5,.42-4.5.46a36.61,36.61,0,0,0,4.57,0,3.94,3.94,0,0,0,.74,1.68c-1.31.19-5.41.55-5.31.56a38.47,38.47,0,0,0,5.79-.13,2.14,2.14,0,0,0,2.48-.17c1.44-.09,2.16-.05,3.08-.18.26,0,.84-.28,1.07-.12C54,46.48,40.3,48,39.62,48c3.68.26,12-.63,12-.63.48.1.11.61-.14.7-4,1.52-12.23,2.14-12.19,2.14a111.64,111.64,0,0,0,11.48-.55c.22,0,.65-.23.83,0,1.15,1.45-11.87,2.86-12.33,2.83,3,.22,12-.58,12-.58,1.24,1.31-11.36,2.75-12,2.7,2.68.21,11.79-.53,11.79-.53,1.54,1.22-11.1,2.79-11.79,2.74a105.9,105.9,0,0,0,10.66-.49c.2,0,.68-.21.84,0,.7.93-3.42,1.41-4.57,1.72a43.73,43.73,0,0,1-6.93.94A78.84,78.84,0,0,0,50,58.48c.22,0,.52-.21.6.1.19.73-1.47,1-2,1.13-6.94,1.55-16.14,2-1.62,1.2a19.24,19.24,0,0,0,2.7-.2c.3-.08.56-.13.54.3s-.29.33-.57.41a44.57,44.57,0,0,1-10.78,2,78.36,78.36,0,0,0,10.3-.46c.19,0,.54-.18.72-.05.76.5-1.42,1.12-1.68,1.19a47.62,47.62,0,0,1-9.34,1.52,72.65,72.65,0,0,0,9.8-.41c.23,0,.66-.14.83.09.44.63-1.38,1-1.74,1.07-.58.14-7.51,1.61-8.89,1.49a86.32,86.32,0,0,0,9.91-.48c.2,0,.4-.19.56,0,1,1.3-9.95,2.71-10.47,2.66,5.19.46,11.45-1.35,10.43.08-.21.31-8.75,2.27-10.43,2.12a71.5,71.5,0,0,0,9.46-.45c.25,0,.55-.27.74,0,.6,1-2.58,1.22-4.09,1.67a45.28,45.28,0,0,1-6.11,1,73.86,73.86,0,0,0,9.47-.5c.21,0,.53-.12.6.14.27,1-3.42,1.42-4.07,1.61a32.21,32.21,0,0,1-6,.91c-.32,0,.64.32,8.36-.3.43,0,1.65-.4,1.27.49-.13.3-.38.31-.67.37s-7.17,1.86-9,1.68c1.45.14,2.27.11,8.14-.33.35,0,1-.27,1.24,0,1.15,1.4-9.88,2.44-9.38,2.49a67.7,67.7,0,0,0,8.86-.45c.21,0,.5-.17.6.07.42,1-3.19,1.45-3.8,1.65a28.75,28.75,0,0,1-5.66.89,55,55,0,0,0,8.72-.4c.18,0,.31-.19.52-.09a.37.37,0,0,1,.2.42c-.13.58-2.92,1.06-3.9,1.38a27.46,27.46,0,0,1-5.54.89A52.1,52.1,0,0,0,47.37,85c.18,0,.48-.17.6,0,.54.93-3.14,1.5-3.65,1.67a26.55,26.55,0,0,1-5.43.9c-.6.06,2.63.22,7.68-.29.31,0,1.07-.36,1.27-.06.57.83-3.15,1.5-3.64,1.66a26.08,26.08,0,0,1-5.31.89,51.66,51.66,0,0,0,8.18-.39c.26-.08.52-.28.77-.08,1.57,1.2-7.93,2.77-8.59,2.7,3.54.4,8.81-1,8.62-.06-.34,1.75-20.45,3.07-3.23,2,.44,0,3.26-.56,3.27.14,0,.38-.77.54-1,.61-8.11,1.82-20.27,2.41-3.13,1.48A22.47,22.47,0,0,0,47,96c.22,0,.63-.25.83-.07,1,.95-3.49,1.59-4.32,1.82-2.82.8-13.35,1.52.88.68.6,0,1.19,0,1.78-.09.41,0,1.64-.53,1.58.3,0,.33-.42.41-.7.49a31.61,31.61,0,0,1-8.32,1.69,46.29,46.29,0,0,0,7.87-.31c.45-.06,1-.3,1.44,0,2,1.8-7.27,3.33-7.87,3.26a48.11,48.11,0,0,0,7.21-.39c1.84-.45,1.84,1.22.67,1.62a25.12,25.12,0,0,1-7,1.55,40.47,40.47,0,0,0,7-.31c.53-.1.92-.27,1.37.14a.85.85,0,0,1-.41,1.41c-.73.28-1.51.38-2.24.66a21,21,0,0,1-4.74.87s0,0,0,0a27.11,27.11,0,0,0,5.4-.23,6.3,6.3,0,0,0,2.32-.33c1-.52,1,.88,0,1.29-4.41,1.84-19,2.18-7.27,2a31.8,31.8,0,0,0,7.88-.87c.27-.11.43-.27.66,0,2.3,3.08-27.19,4-10,3.82a42.48,42.48,0,0,0,9.46-1c.33-.11.66-.26.77.2.8,3.6-27.22,4.16-10.19,3.94a40.25,40.25,0,0,0,5.65-.35c.54-.08,1,.47,0,.71a13.72,13.72,0,0,1-4,1.07c-3,.49-2.22.81-9.48,1.42-4.17-.1-15.64-1.13-13.71-2.3.32-.19.91,0,1.25,0a73.15,73.15,0,0,0,9.85-.51,58.33,58.33,0,0,1-9-.62c-1.65-.3-5.41-.44-6.51-1.42-.25-.23-.6-.78-.38-1.12s.65-.06.93,0c3.26,1.09,16.4,0,14.86,0a59.36,59.36,0,0,1-9-.61c-1.75-.33-7.44-.55-6.66-2.11.22-.43.65-.06,1.84.09a52.52,52.52,0,0,0,11.22-.17c-1.46,0-11.73-.52-12.53-1.64a.55.55,0,0,1,.28-.89c.48-.13.84.22,1.27.27a39.13,39.13,0,0,0,7.05-.12,20.43,20.43,0,0,1-4.78-.58,22.65,22.65,0,0,1-2.61-.66.92.92,0,0,1,.18-1.8c.27,0,.56.21.83.27a39.74,39.74,0,0,0,7.39-.06,20.43,20.43,0,0,1-4.78-.58c-.89-.27-4-.41-3.21-1.92.37-.69.85-.41,1.2-.36a39.57,39.57,0,0,0,7.17-.1,20.43,20.43,0,0,1-4.78-.58c-.85-.26-3.71-.37-3.49-1.72.15-.9.64-.77,1-.7a50.79,50.79,0,0,0,9.26-.06,31.14,31.14,0,0,1-5.85-.54c-.52-.13-4.5-.51-4-1.44.16-.29.44-.14.71-.09A92.15,92.15,0,0,0,28.49,99c.34,0-13-.54-11.24-2.14.22-.2.83,0,1.09.08a113.09,113.09,0,0,0,12.07-.24,55.28,55.28,0,0,1-7.93-.49c-1.57-.27-5.94-.41-5.23-1.33.17-.21.44-.12.68-.1s7.77.15,10-.17A53.5,53.5,0,0,1,21.15,94c-1.86-.38-3.94-.27-4.2-1.15-.14-.47.21-.46.58-.4a54.5,54.5,0,0,0,9.1-.09,30.44,30.44,0,0,1-5.86-.55c-.67-.16-3.86-.47-4.14-1.18a.43.43,0,0,1,.1-.47c.18-.13.33,0,.5.07,1.46.45,9.61,0,8.49,0a25.46,25.46,0,0,1-5.35-.57c-.35-.09-4.64-.7-3.82-1.54.18-.18.58,0,.8,0A52.91,52.91,0,0,0,25.59,88a26.76,26.76,0,0,1-5.48-.56c-.57-.15-4.3-.49-3.92-1.49.1-.26.52-.08.73,0a54.75,54.75,0,0,0,8.53-.12,27.74,27.74,0,0,1-5.59-.55c-.81-.21-4.52-.57-3.91-1.44.17-.24.41-.13.67-.08a66,66,0,0,0,8.7-.08c.55-.09-11.39-.64-9.73-2.16,0,0,7.05.37,9.59,0a43,43,0,0,1-8.29-1c-.23,0-2.31-.69-1.64-1.16.19-.13.7.09.91.12a78.82,78.82,0,0,0,8.89-.12,47.72,47.72,0,0,1-8.76-1.09c-.4-.11-.79-.3-1.19-.43s-.56-.3-.32-.59.61,0,.91,0a75.3,75.3,0,0,0,9.22-.11,44.13,44.13,0,0,1-6.05-.58c-.35-.08-4.42-.59-4.47-1.35,0-.6.95-.15,1.34-.12a85.75,85.75,0,0,0,9.05-.15,49.29,49.29,0,0,1-9-1c-1.93-.47-1.85-1.11-1.44-1.18a2,2,0,0,1,.52.13,76.75,76.75,0,0,0,9.75-.09,47.45,47.45,0,0,1-6.28-.58c-1.37-.31-2.77-.25-4.09-.9-.16-.08-.74-.56-.29-.69.19,0,.64.14.86.15s7.25.14,9.31-.17c0,0-6.6-.13-10.52-1.44-.35-.12-.56-.4-.09-.63A101.47,101.47,0,0,0,24,68.27a49.78,49.78,0,0,1-6.51-.56c-1.48-.32-3-.26-4.14-.84-.28-.15-.53-.43-.16-.65s.71,0,1.09,0A70.13,70.13,0,0,0,23.88,66c-4.25-.16-12.82-1-11.15-2.11,0,0,7.7.43,11,0,.38-.05-13.06-.57-11.33-2.09,0,0,8.21.32,11.2-.11.55-.07-12.12-.32-11.61-2,.11-.32.56-.14.82-.1a85.52,85.52,0,0,0,10.65-.18A51,51,0,0,1,13,58.37c-.36-.07-1,0-1.22-.34-1.11-1.36,5.47.06,11.2-.73a58.16,58.16,0,0,1-7.09-.55c-1.17-.23-5.46-.49-4.77-1.33.31-.38,1.2-.11,1.63-.1s7.93.08,10.1-.21a69.28,69.28,0,0,1-10.34-1,10.16,10.16,0,0,0-1.31-.27c-.31,0-.76-.18-.42-.5s1.19-.17,1.72-.16c.35,0,8,.08,10.24-.22a70.63,70.63,0,0,1-10.5-1,11.55,11.55,0,0,1-1.94-.6.5.5,0,0,1,0-.55s9.11.27,12.27-.15c.34,0-10.11-.19-12.59-1.53-.21-.11-.41-.47-.05-.57a1.76,1.76,0,0,1,.55.09,93.27,93.27,0,0,0,11.59-.21c-7.83-.23-5.31-.27-9-.69-5.38-.62-3.18-1.12-3.31-1.44.17.41,10.07.25,12.19,0a68.91,68.91,0,0,1-7.67-.53A27.62,27.62,0,0,1,9.51,45c-.26-.1-.72-.52-.28-.74.28-.13.85.08,1.15.1a98,98,0,0,0,11.43-.27A53.22,53.22,0,0,1,14,43.6c-.78-.13-5-.46-5.63-1.11a.35.35,0,0,1,.24-.55,3.26,3.26,0,0,1,.6.14,112.82,112.82,0,0,0,12.44-.14c.34,0-14.2-.31-13.69-2,.13-.42.38,0,2.07.07.34,0,8.92.07,11.48-.25.35,0-15.84-.58-13.66-2.12.26-.18,1,.13,1.34.16s9.47.1,12.19-.24c.5-.06-12.6-.4-13.95-1.59-.14-.13-.21-.53,0-.62s.52.1.7.14a132.36,132.36,0,0,0,14.11-.15c.74-.09-15.54-.32-14.86-1.85.21-.48.48-.09,2.46-.07A123.09,123.09,0,0,0,23.72,33a93.68,93.68,0,0,1-12.93-.7c-.23,0-1.08,0-1.17-.24-.36-1,10.7.17,17.54-.57a133.48,133.48,0,0,1-18.4-1.78,3.54,3.54,0,0,1-1.88-1.17c15.61,4.36,31.12.16,35.37,1.74-2.89.46-5.83.67-8.73,1C33.13,31.31,35.1,31.63,43.36,30.93ZM32.05,35.09a.34.34,0,1,0,0-.68A.34.34,0,1,0,32.05,35.09Zm-.49,13.52a.34.34,0,1,0,0-.68A.34.34,0,1,0,31.56,48.61Zm.54,23.75a.34.34,0,1,0,0,.67A.34.34,0,1,0,32.1,72.36Zm-.33-5a.34.34,0,1,0,0,.68A.34.34,0,1,0,31.77,67.41ZM30.63,42a.34.34,0,1,0,0,.67A.34.34,0,1,0,30.63,42ZM30,33.78a.34.34,0,1,0,0-.67A.34.34,0,1,0,30,33.78Zm-.07,3.42a.34.34,0,1,0,0-.67A.34.34,0,1,0,29.94,37.2Zm-4.82,3.24a.34.34,0,1,0,0,.67A.34.34,0,1,0,25.12,40.44ZM26.7,36l.17-.18c.32-.32-.2-.78-.52-.46l-.17.18C25.86,35.86,26.38,36.32,26.7,36Zm.37,2.49a.34.34,0,1,0,0,.67A.34.34,0,1,0,27.07,38.5Zm1,10a.34.34,0,1,0,0-.67A.34.34,0,1,0,28.1,48.54Zm.46,3.24a.34.34,0,1,0,0,.68A.34.34,0,1,0,28.56,51.78Zm1.94,51.74a.34.34,0,1,0,0,.67A.34.34,0,1,0,30.5,103.52ZM28.87,43.91a.34.34,0,1,0,0,.67A.34.34,0,1,0,28.87,43.91ZM30,39.76a.34.34,0,1,0,0-.67A.34.34,0,1,0,30,39.76Zm.78,19.47a.34.34,0,1,0,0-.68A.34.34,0,1,0,30.79,59.23Zm.85,22a.34.34,0,1,0,0,.68A.34.34,0,1,0,31.64,81.26Zm.63-3.44a.34.34,0,1,0,0-.68A.34.34,0,1,0,32.27,77.82Zm.91,23.91a.34.34,0,1,0,0,.67A.34.34,0,1,0,33.18,101.73Zm0-6a.34.34,0,1,0,0,.67A.34.34,0,1,0,33.18,95.75ZM33,89.43a.34.34,0,1,0,0,.67A.34.34,0,1,0,33,89.43Zm-.43-26.31a.34.34,0,1,0,0,.67A.34.34,0,1,0,32.55,63.12Zm-.11-9.4a.34.34,0,1,0,0,.67A.34.34,0,1,0,32.44,53.72Zm2.39,54.46a.34.34,0,1,0,0,.67A.34.34,0,1,0,34.83,108.18Zm-1.5-67a.34.34,0,1,0,0-.67A.34.34,0,1,0,33.33,41.2Zm1.36,8.86a.34.34,0,1,0,0,.67A.34.34,0,1,0,34.69,50.06Zm.64-2.93a.34.34,0,1,0,0,.68A.34.34,0,1,0,35.33,47.13Zm-.46-9.05c.41,0,.58-.69-.2-.67C34.27,37.42,34.09,38.1,34.87,38.08Zm-.57,5.14a.34.34,0,1,0,0-.67A.34.34,0,1,0,34.3,43.22ZM35,83.9a.34.34,0,1,0,0,.67A.34.34,0,1,0,35,83.9ZM51.55,30.24a9.17,9.17,0,0,1-2.47.29,3.63,3.63,0,0,0-.22.77c1.73-.24,1.94-.34,2.62-.38S52,30.22,51.55,30.24ZM23.69,121.56A49.53,49.53,0,0,0,43,121C40.38,121.36,25.32,121.71,23.69,121.56Z"/><path class="cls-4" d="M57.58,12.33c-1.09-2.42-2.86-3-4.6-5-.93-1-1.33-2.27-2.56-3.14C47.32,2,42.57,1.41,38.84,2a34.13,34.13,0,0,1-3.76.86c-6.2.27-6.77-3.73-19.65.27-3.3,1-5.7,3.48-8.35,5.45-3.07,2.29-5,3.11-5.73,7a18.37,18.37,0,0,0,.4,8.87c.61,1.91,4,2.79,5.82,3.19,3.11.67,5.78-.49,8.86-.4,2.87.09,5.56,1.08,8.35,1.55,2.38.4,4.29-.1,6.57-.46s5.41.38,7.91.47c2,.07,4.11.45,5.38,1.94h0c1.3,1.61,1.19,4.12.94,6,0,.33-1.71,10,1.59,7.94h0c3.71-2.31-.39-10.28.82-14.22,1.19-4.4,9.15-3.27,10.73-7.8C60.09,18.83,59.07,15.6,57.58,12.33ZM12.68,13c-3-.21-7.6,2.49-4.95,5.91.4.51-.38,1-.85.65-4.14-2.9,1.2-7.88,5.83-6.87C12.89,12.77,12.87,13.06,12.68,13ZM30,25.33c-4,2.9-8.48-2.19-7.72-1.72a9.54,9.54,0,0,0,7.45,1.18A.3.3,0,0,1,30,25.33Zm.21-.39a.06.06,0,1,1,0-.12A.06.06,0,1,1,30.24,24.94Zm1.4-14.74C30.85,7,26.08,7.37,24,9.05c-.14.11-.28.42-.51.29s0-.6-.11-.84c-.37-.92-4.69-1.75-5.54,1.66a.62.62,0,0,1-1.2-.12c-.24-2.76,3.59-3.86,5.88-3.24.85.24,1.3,1.14,2.33.91.34-.08,4.16-2,6.35.16a3.63,3.63,0,0,1,1,2.24C32.23,10.41,31.71,10.5,31.64,10.2Zm2.54,6.87c-.16-.07-.06-.3.1-.26a6.58,6.58,0,0,0,4.59-.62c1.49-.86,1.57-1.86,1.84-3.35a.4.4,0,0,1,.7-.1C43.13,15.38,38.58,19,34.18,17.07ZM44.27,27.13c-.56-1.92-2.4-2.5-4.37-2.38a.17.17,0,1,1,0-.33c2.16-.31,4.92,0,5.43,2.4C45.46,27.47,44.46,27.79,44.27,27.13Zm10.32-8.61c-.35.37-1.13,0-.94-.49,1.19-3.27-3.55-5.3-6-4.82a.13.13,0,1,1-.07-.24C51.63,11.8,57.28,15.67,54.59,18.52Z"/></g></g></svg>