<?xml version="1.0" encoding="utf-8"?>
<!-- Generator: Adobe Illustrator 23.1.0, SVG Export Plug-In . SVG Version: 6.00 Build 0)  -->
<svg version="1.1" id="Capa_1" xmlns="http://www.w3.org/2000/svg" xmlns:xlink="http://www.w3.org/1999/xlink" x="0px" y="0px"
	 viewBox="0 0 108.8 102.5" style="enable-background:new 0 0 108.8 102.5;" xml:space="preserve">
<style type="text/css">
	.st0{fill:#480000;}
	.st1{fill:#DE2831;}
	.st2{fill:#FCD680;}
	.st3{fill:#C46A62;}
	.st4{fill:#66A069;}
	.st5{fill:#B23B31;}
	.st6{fill:#EF8921;}
</style>
<g>
	<g id="Capa_1-2">
		<path class="st0" d="M89,59.6c0.1-0.7-0.1-1.5-0.5-2.1c0.6-2,0.8-4,0.5-6.1c0-0.2-0.2-0.4-0.4-0.5c-0.1-0.8-0.6-1.5-1.3-2
			c2.2-2.5,3.3-5.7,3.2-9C90.2,29.7,79,24.1,70.5,21.4c-5.9-1.9-12.1-2.8-18.3-2.7c-3.3,0.1-6.6,0.7-9.8,1.7
			c-1.5,0.5-2.9,1.1-4.3,1.7c-6.3,3-13,9.5-14.6,16.4c-0.8,2.8-0.4,5.8,0.9,8.4c0.3,0.5,0.6,0.9,0.9,1.3c-0.5,0.5-1,1.2-1.3,1.9
			c-0.6,0.9-0.9,2.1-0.8,3.2c0,0.5,0.2,1,0.4,1.5c0,0.1,0,0.2,0,0.2c0.2,0.7,0.4,1.3,0.5,2c-0.8,0-1.5,0.6-1.8,1.3
			c-0.4,1.2,0.1,2.6,1.2,3.3c0,0.3,0,0.5,0,0.8c0.2,0.5,0.5,0.8,0.6,1.3c0.3,0.8-0.4,1.3-0.3,2.1c0,1,0.7,1.8,1.7,1.8
			c0.6,0.1,0.7,1.2,1,1.6c0.2,0.4,0.4,0.8,0.8,1.1l0,0c0.2,4.2,3.8,6.7,7.3,8.3c3.9,1.8,8.1,2.7,12.3,3.6c6.3,1.4,12.8,1.7,19.2,0.7
			c6.1-1,13-3.2,17.6-7.4c1.9-1.7,3.2-4,3.8-6.5c0.8-0.3,0.9-1.3,0.9-2.1c0-0.2,0-0.4,0-0.6c0-0.4-0.1-0.2,0.2-0.1
			c0.5,0.2,1.1,0,1.6-0.3c0.9-1,0.6-1.8,0-2.7C91.9,62.1,90.9,59.9,89,59.6z"/>
		<path class="st1" d="M26.5,50.2c0-0.5-0.7-0.7-1-0.5c-0.3,0.3-0.7,1.4-0.9,1.9c-0.4,1-0.3,2.1,0.3,2.9c0.8,1.1,2,1.8,3.4,2.1
			c0.6,0.1,1.1,0.2,1.7,0.3c0.4,0.2,0.9,0.4,1.3,0.5c1,0.2,1.9-0.3,2.9-0.1c1.4,0.2,2.2-0.7,3.5-0.9c1-0.2,2.1-0.2,3.2-0.4
			c0.7-0.1,1.4-0.9,0.6-1.4c-0.7-0.4-1.1,0.2-1.6,0.5c-0.4,0.3-0.8,0.4-1.3,0.4c-0.1,0-0.1,0-0.1-0.1c0,0,0-0.1,0.1-0.1
			c0.3-0.1,1-0.5,1.1-0.8c0.1-0.2,0-0.5-0.2-0.6c-0.1,0-0.2-0.1-0.3,0c-0.4,0.1-1,0.6-1.4,0.9c-0.3,0.3-0.9,0.6-1.3,1
			c-0.1,0.1-0.3,0-0.2-0.2c0.2-0.4,1.2-1.3,1-1.8c-0.2-0.5-0.8-0.3-1.1-0.1c-0.8,0.5-1.6,1.1-2.3,1.7c-0.1,0.1-0.3,0-0.2-0.2
			c0.3-0.5,1.8-1.9,0.5-2.1c-0.5,0-0.9,0.2-1.3,0.5c-0.5,0.3-0.9,0.7-1.3,1.1c-0.1,0.1-0.3,0-0.2-0.1c0.2-0.4,1.8-2.3,0.7-2.3
			c-0.3,0-0.5,0.3-0.7,0.5c-0.4,0.4-0.8,0.8-1.2,1.2c-0.1,0-0.2,0-0.2-0.1c0.3-0.6,0.6-1.1,1-1.6c0.2-0.3,0.5-1-0.1-1
			c-0.3,0-0.8,0.5-1.1,0.7c-0.5,0.5-0.9,1-1.3,1.5c0,0-0.1,0.1-0.1,0c0,0-0.1-0.1,0-0.1c0.2-0.7,0.9-1.5,1-2.1
			c0.1-0.6-0.5-0.5-0.9-0.3c-0.7,0.5-1.3,1.1-1.8,1.8c-0.1,0.1-0.2,0-0.2-0.1c0.1-0.3,1.4-2.1,1-2.3c-0.2-0.1-0.4,0.2-0.6,0.3
			c-0.4,0.4-0.8,0.9-1.2,1.3c0,0,0,0-0.1,0c0,0,0,0,0-0.1l0,0c0.1-0.4,0.2-0.7,0.4-1.1C26.1,50.8,26.5,50.4,26.5,50.2z"/>
		<path class="st2" d="M40.3,61.7c0.5-0.1,1.9-0.3,1.6-1.1c-0.4-1-2.3,0.5-2.9,0.7c-0.1,0-0.2-0.1-0.1-0.1c0.3-0.2,1.1-0.8,0.5-0.9
			c-0.3,0-0.7,0.1-1,0.3c-0.8,0.5-1.6,1-2.3,1.5c-0.1,0.1-0.2-0.1-0.1-0.1c0.2-0.2,0.6-0.4,0.6-0.7c0.1-0.5-0.5-0.4-0.8-0.3
			c-0.9,0.4-1.6,1-2.3,1.6c-0.1,0.1-0.1,0-0.1-0.1c0.2-0.2,1-0.8,1-1.1c0-0.2-0.2-0.3-0.5-0.2c-0.4,0.2-0.7,0.4-1.1,0.7
			c-0.4,0.3-0.8,0.6-1.3,0.9c0,0-0.1,0-0.1-0.1c0.1-0.3,1.5-1.8,0.5-1.8c-0.3,0-0.4,0.3-0.6,0.5c-0.5,0.5-1.1,1-1.6,1.6
			c0,0-0.1,0-0.1,0c0.1-0.4,0.3-0.7,0.5-1c0.1-0.2,0.5-0.5,0.5-0.7c0.1-0.4-0.4-0.5-0.7-0.2c-0.5,0.4-1,1-1.3,1.6c0,0-0.1,0-0.1,0
			c0,0,0-0.1,0-0.1c0.1-0.5,0.7-1.3,0.5-1.8c-0.1-0.3-0.4-0.4-0.7-0.3c0,0-0.1,0-0.1,0c-0.1,0.1-0.2,0.1-0.2,0.2
			c-0.5,0.7-0.4,2.2-0.3,3c0,0.5,0.1,1.4,0.6,1.7c0.8,0.4,1.8-0.3,2.4-0.7c1.7-1,3.5-1.7,5.3-2.1C37.6,62.2,39,61.9,40.3,61.7z"/>
		<path class="st3" d="M27.6,58.8c0.4,0.1,0.8,0.2,1.2,0.3c2.1,0.6,4.2,0.8,6.3,0.6c1.5-0.1,3-0.4,4.4-0.8c0.5-0.1,3.1-0.6,3-1.3
			c-0.6-0.1-1.2,0.3-1.8,0.4c-0.7,0.1-1.3,0.2-2,0.2c0,0-0.1,0-0.1-0.1c0,0,0-0.1,0.1-0.1c0.2-0.1,1.7-0.5,1.7-0.7
			c0.1-0.4-1-0.1-1.2-0.1c-0.8,0.1-1.5,0.3-2.2,0.6c-0.6,0.4-1.3,0.5-2,0.5c-0.8-0.1-1.7-0.2-2.5-0.1c-1.3,0.2-2.1-0.4-3.4-0.6
			c-0.5-0.1-0.9-0.2-1.4-0.3c-0.2,0-0.5-0.2-0.7-0.1c-0.3,0.2,0.3,0.5,0.4,0.8c0.1,0.1,0,0.2-0.1,0.1c-0.2,0-1.4-0.3-1,0.1
			C26.7,58.6,27.2,58.7,27.6,58.8z"/>
		<path class="st2" d="M30,49.4c0.9-0.1,1.7-0.4,2.5-0.9c1.1-0.8,2.1-1.7,3-2.6c0,0,0.1,0,0.1,0.1c-0.5,0.8-1,1.6-1.5,2.4
			c-0.5,0.8-1,1.3-0.9,2.2c0.2,1.5,2.5,2,3.7,2c0.7,0,0.9-0.1,1.3-0.7c0.3-0.5,0.5-0.8,1.1-0.4c0.6,0.3,0.8,1,1.3,1.4
			c0.7,0.5,1.5,0.8,2.4,1c0.9,0.4,1.9,0.5,2.9,0.5c0.5-0.1,0.9-0.3,1.2-0.7c0.5-0.5,0.1-1,0.1-1.7c0-0.7,0.2-1.5,0.5-2.2
			c0.4-1.2,1.3-2.3,2.4-3.1c0,0,0,0,0,0c-1.6,1.2-2.9,3.7-2.2,5.8c0.2,0.9,0.7,1.6,1.3,2.3c1.1,1.1,3.4,0.8,4.8,0.8
			c2.1,0,4.2-0.1,6.3-0.2c0.8,0,1.8,0.1,2.5-0.5c0.9-0.9,0.8-1.9,0.9-3.1c0.1-0.9,0.1-2.1-0.8-2.8c0,0,0-0.1,0-0.1
			c1,0.4,1.3,1.4,1.3,2.4c0.1,1.3,0,2.5,1.3,3.3c0.7,0.5,1.8,0.4,2.6,0.4c1.1-0.1,2.2-0.2,3.4-0.3c2.2-0.2,4.4-0.7,6.5-1.2
			c1.3-0.4,3.1-0.8,3.9-2c0.6-0.7,0.8-1.7,0.5-2.6c-0.3-0.9-0.9-1.7-1.7-2.2 M80.6,46.5c1,0.5,2,1.2,2.7,2.1
			c1.8,2.1,3.9-0.9,4.7-2.3c2.8-5,1.3-11-2.4-15c-3.6-3.9-8.5-6.4-13.4-8.1c-2.4-0.8-4.8-1.5-7.2-2c-1.2-0.3-2.4-0.5-3.6-0.7
			c-0.5-0.1-1.1-0.3-1.6-0.3c-0.7-0.1-1.3-0.1-2-0.1c-1.3-0.1-2.6-0.1-3.9-0.1c-9.5,0-17.9,3.5-24.3,10.5c-1.9,2.1-3.7,4.3-4.5,7.1
			c-0.8,2.5-1.1,5.3-0.1,7.8c0.8,2,2.8,4.1,5.1,4.1L80.6,46.5z M51.9,45.6c0.2-0.9,0.3-1.8,0.3-2.7c0,0,0.1-0.1,0.1-0.1
			c0,0,0.1,0,0.1,0.1c0.2,0.9,0.3,1.9,0.1,2.9c-0.1,0.2-0.2,0.3-0.4,0.2C51.9,45.9,51.9,45.7,51.9,45.6L51.9,45.6z M53.3,52.5
			L53.3,52.5c-0.2,0.1-0.5,0.1-0.6-0.1l0,0c-0.2-0.2-0.2-0.5,0-0.7c0,0,0,0,0,0l0,0c0.2-0.2,0.4-0.2,0.6-0.1l0,0
			c0.2,0.2,0.3,0.5,0.2,0.7C53.4,52.4,53.4,52.5,53.3,52.5L53.3,52.5z M54.2,46.9c-0.2,0.1-0.4,0.1-0.5-0.1s-0.1-0.4,0.1-0.5l0,0
			c0.8-0.9,0.5-2.7,0.5-3.8c0,0,0.1-0.1,0.1,0c0,0,0,0,0,0C54.7,43.4,55.6,46.2,54.2,46.9L54.2,46.9z M56.3,50.3
			c-0.3,0-0.6-0.3-0.6-0.7c0-0.1,0.1-0.3,0.2-0.4l0.1-0.1c0.2-0.2,0.6-0.2,0.8,0l0.1,0.1c0.2,0.3,0.2,0.7-0.1,0.9
			C56.6,50.2,56.5,50.3,56.3,50.3L56.3,50.3z M65.9,45.4c-0.5-2.5-2.9-5-5.1-6.1c-0.1,0,0-0.1,0-0.1c2.8,1,4.9,3.2,5.9,6
			C66.8,45.6,66,45.8,65.9,45.4L65.9,45.4z M60.4,38c-0.3,0-0.5-0.2-0.4-0.5c0,0,0-0.1,0-0.1l0,0c0.1-0.2,0.3-0.4,0.6-0.3
			c0.1,0,0.3,0.2,0.3,0.3l0,0C60.8,37.6,60.7,37.9,60.4,38C60.4,38,60.4,38,60.4,38z M67.8,49.3c-0.5-0.1-1-0.3-1.5-0.5
			c-0.1-0.1-0.1-0.3,0.1-0.3c0.5,0,1.1-0.1,1.6-0.2c0.4-0.2,0.9-0.3,1.4-0.2c0.6,0.1,0.5,0.9,0.1,1.1C69,49.5,68.4,49.5,67.8,49.3z
			 M70,51.8c-0.2,0-0.4-0.2-0.4-0.4s0.2-0.4,0.4-0.4c0.2,0.1,0.3,0.3,0.3,0.5C70.2,51.7,70.1,51.8,70,51.8L70,51.8z M71.8,36.3
			c1.9,1.3,4,3,4.6,5.3c0.1,0.2-0.1,0.5-0.3,0.6s-0.5-0.1-0.6-0.3c-1.6-4.4-6.6-7-10.7-8.9c0,0,0-0.1,0-0.1
			C67.3,33.8,69.6,34.9,71.8,36.3z M68.1,32.8c0-0.2,0.1-0.4,0.3-0.4c0.1,0,0.2,0,0.3,0c0.1,0,0.1,0.1,0.2,0.1
			c0.1,0.1,0.1,0.2,0.1,0.3c0,0.1,0,0.2-0.1,0.3c-0.1,0-0.1,0.1-0.2,0.1c-0.1,0.1-0.3,0.1-0.4,0C68.2,33.1,68.1,32.9,68.1,32.8z
			 M75.6,47.6c-0.4,0.1-0.8-0.1-0.9-0.5c0-0.1,0-0.1,0-0.2c-0.2-0.6-0.6-1.1-1.1-1.6c-0.1-0.1,0-0.2,0.1-0.2c0.4,0,0.8,0.1,1.2,0.3
			c0.2,0.1,0.4,0.3,0.6,0.5c0.1,0.1,0.3,0.4,0.4,0.5c0.3,0.3,0.3,0.8,0,1.1C75.9,47.5,75.8,47.6,75.6,47.6z M76.5,50.7
			c-0.2,0-0.3-0.1-0.3-0.3c0-0.2,0.1-0.3,0.3-0.3l0,0c0.1,0,0.2,0.2,0.2,0.3C76.7,50.6,76.6,50.6,76.5,50.7z M78.6,41.5
			c-0.4-1.3-1.1-2.6-1.9-3.7c-0.9-1.1-1.9-2.2-3-3.1c-2.5-2.4-5.2-4.4-8.2-6c0,0,0-0.1,0-0.1c3.5,1.2,6.5,3.5,9.3,5.9
			c1.2,1,2.4,2.2,3.4,3.5c0.6,0.9,1.6,2.2,1.5,3.4c0,0.3-0.3,0.5-0.6,0.5C78.9,41.8,78.7,41.7,78.6,41.5z M79.5,48.9
			c-0.2,0-0.4-0.2-0.3-0.4c0-0.2,0.2-0.3,0.3-0.3c0.2,0.1,0.3,0.3,0.3,0.5C79.7,48.7,79.6,48.9,79.5,48.9L79.5,48.9z M80.5,39.4
			c-2.6-6.5-8.3-11.3-15.2-12.5c-0.1,0,0-0.1,0-0.1c7.1,1,13.7,5.6,16.2,12.4C81.8,39.8,80.8,40.1,80.5,39.4z M85.9,36.7
			c0.7,0.4,1.9,1.3,1.5,2.2C87,39.5,86,39,86.2,38.3c0-0.1,0-0.1,0.1-0.1c0,0,0-0.1,0-0.1c0-0.1,0-0.3-0.1-0.4
			c-0.1-0.3-0.2-0.6-0.4-0.9c0,0,0-0.1,0-0.1C85.8,36.6,85.8,36.6,85.9,36.7L85.9,36.7z M85.8,44.3c0,0.1,0,0.2,0,0.3
			c-0.1,0.4-0.3,0.8-0.8,0.3c0,0-0.1-0.1-0.1-0.1c-0.1-0.1-0.1-0.2-0.1-0.3c0-0.1,0-0.2,0.1-0.3c0,0,0.1-0.1,0.1-0.1
			C85.5,43.6,85.8,43.9,85.8,44.3z M85.2,40.9c-0.2,0.8-1.5,1-2.2,1.1c0,0-0.1,0,0-0.1c0.2-0.3,0.5-0.5,0.8-0.8
			c0.3-0.2,0.4-0.6,0.7-0.8c0.2-0.1,0.5-0.1,0.7,0.1C85.2,40.6,85.3,40.8,85.2,40.9L85.2,40.9z M83.5,38.9c-2-3.6-4.5-6.9-8-9.2
			c-3.4-2.2-7.2-3.9-11.1-4.8c0,0,0-0.1,0,0c8.2,1.6,16.3,5.7,20.4,13.4C85.2,39,83.9,39.7,83.5,38.9z M76.1,25.7c3.3,1,5.9,3.2,8,6
			c0.3,0.4-0.4,0.9-0.7,0.4c-1.8-2.8-4.4-4.9-7.4-6.3C76,25.8,76,25.8,76.1,25.7C76,25.7,76.1,25.7,76.1,25.7L76.1,25.7z M69.9,24.9
			c3,0.3,5.8,1.6,8.3,3.2c2.1,1.3,4.9,3.2,5.8,5.7c0.1,0.4-0.5,0.8-0.7,0.4c-0.7-1-1.4-1.9-2.2-2.8c-1.1-1.1-2.2-2-3.5-2.9
			C75.2,26.9,72.6,25.7,69.9,24.9C69.8,25,69.8,25,69.9,24.9C69.8,24.9,69.8,24.9,69.9,24.9L69.9,24.9z M64.2,22.9
			c0.1-0.1,0.2-0.2,0.3-0.2c0.2,0,0.3,0,0.4,0.1c0.2,0.2,0.2,0.5,0,0.7s-0.5,0.2-0.7,0C64.1,23.3,64.1,23.1,64.2,22.9z M63.7,35.5
			c3.7,0.9,8,3.3,9,7.2c0.1,0.5-0.7,0.7-0.8,0.2C71.2,39.2,67,36.7,63.7,35.5C63.7,35.5,63.7,35.5,63.7,35.5
			C63.7,35.5,63.7,35.5,63.7,35.5L63.7,35.5L63.7,35.5z M63.2,37.6c1.7,0.7,3.3,2.3,4.6,3.6c0.3,0.3,3.1,2.7,1.9,3.2
			c-0.3,0.1-0.5-0.1-0.6-0.3c0,0,0-0.1,0-0.1c0-0.1-0.1-0.2-0.2-0.3c-0.2-0.3-0.5-0.6-0.7-0.9c-0.6-0.7-1.2-1.3-1.8-2
			C65.5,39.7,64.4,38.4,63.2,37.6C63.1,37.6,63.2,37.6,63.2,37.6L63.2,37.6z M62.1,29.9c-0.1,0-0.2-0.1-0.2-0.2
			c0-0.1,0.1-0.2,0.2-0.2l0,0c0.1,0,0.2,0.1,0.2,0.2C62.4,29.8,62.3,29.9,62.1,29.9z M59.5,24.8c0.2-0.2,0.5-0.3,0.8-0.5
			c0.2-0.1,0.5-0.2,0.6-0.3c0-0.1,0.1-0.1,0.2-0.1c0.1,0,0.3-0.2,0.1-0.1c0.3-0.2,0.6-0.1,0.8,0.2c0,0.1,0.1,0.2,0.1,0.3
			c0.1,0.7-0.6,0.8-1.1,0.8c-0.5,0-0.9,0-1.4-0.2C59.5,24.9,59.4,24.8,59.5,24.8C59.5,24.8,59.5,24.8,59.5,24.8z M59.7,32.3
			c0.4,0,0.6,0.4,0.8,0.6c0.1,0.2,0.3,0.4,0.5,0.6c0,0,0,0.1,0,0.2c0,0-0.1,0-0.1,0c-0.3,0-0.6-0.1-0.8-0.2
			c-0.3-0.1-0.6-0.3-0.8-0.5C59,32.8,59.4,32.4,59.7,32.3L59.7,32.3z M58.3,41.1c1.8,0.9,3,2.7,3.1,4.7c0,0.4-0.5,0.4-0.6,0.1
			c-0.5-1.9-0.9-3.5-2.6-4.6c0,0-0.1-0.1,0-0.1C58.2,41.1,58.2,41.1,58.3,41.1z M58,46c0,0.5-0.8,0.4-0.7,0c0.2-1.5-0.5-2.8-1.1-4.2
			c0,0,0-0.1,0-0.1c0,0,0.1,0,0.1,0C57.2,43,58.1,44.3,58,46z M54,27.9c0.2-0.2,0.4-0.4,0.7-0.5l0.5-0.4c0,0,0.3-0.2,0.2-0.2
			c0.1-0.3,0.4-0.5,0.7-0.4c0.3,0.1,0.5,0.4,0.4,0.7c-0.1,0.3-0.4,0.5-0.7,0.4l-0.4,0.2l-0.5,0.2C54.6,27.9,54.3,28,54,27.9
			C54,28,54,28,54,27.9C54,27.9,54,27.9,54,27.9z M54.4,38.8c0.4-0.2,0.8-0.4,1.2-0.6c0.1,0,0.2,0.1,0.1,0.2
			c-0.3,0.3-0.6,0.7-0.8,1.1c-0.3,0.4-0.4,0.7-0.8,0.8c-0.3,0.1-0.7-0.2-0.7-0.5c0-0.1,0-0.2,0-0.2C53.5,39.1,54,39,54.4,38.8z
			 M52.7,23.5c0.5,0,0.8,0.4,0.8,0.8s-0.4,0.8-0.8,0.8c-0.5,0-0.8-0.4-0.8-0.8C51.9,23.9,52.3,23.5,52.7,23.5z M50.8,33.1
			c0.4,0,0.7,0,1.1,0c0.3,0.1,0.6,0.1,0.9,0.1c0.3-0.1,0.7,0.1,0.8,0.4c0.1,0.3-0.1,0.7-0.4,0.8c-0.2,0-0.3,0-0.5-0.1
			c-0.3-0.2-0.6-0.4-1-0.6C51.4,33.6,51.1,33.4,50.8,33.1C50.7,33.2,50.7,33.1,50.8,33.1z M50.8,39.6c0.3,0,0.6,0.3,0.5,0.6
			c0,0.3-0.2,0.5-0.5,0.5c-0.3,0-0.6-0.3-0.5-0.6C50.3,39.8,50.5,39.6,50.8,39.6z M49.8,36.8c0.2,0,0.3,0.1,0.3,0.3
			s-0.1,0.3-0.3,0.3c-0.2,0-0.3-0.1-0.3-0.3C49.5,36.9,49.6,36.8,49.8,36.8L49.8,36.8L49.8,36.8z M47.8,43.1c-0.3,0-0.6-0.3-0.5-0.6
			c0-0.3,0.2-0.5,0.5-0.5c0.3,0,0.6,0.3,0.5,0.7C48.3,42.8,48.1,43,47.8,43.1L47.8,43.1z M46.8,23.2c0.4-0.8,1.6,0.2,2.1,0.6
			c0,0,0,0.1,0,0.1c0,0,0,0,0,0c-0.3,0-0.6,0-0.9,0c-0.2,0-0.3,0-0.5,0c-0.1,0.1-0.3,0.1-0.4,0c-0.2-0.1-0.4-0.3-0.3-0.5
			C46.8,23.3,46.8,23.3,46.8,23.2z M46.5,26.5C46.5,26.4,46.5,26.4,46.5,26.5v-0.1c0,0,0-0.1,0-0.1v-0.1c0,0,0-0.1,0.1-0.1
			c0.2-0.2,0.4-0.4,0.7-0.3h0.1h0.1c0.2,0.1,0.4,0.3,0.5,0.5l0,0c0,0,0,0,0,0c0,0,0,0,0,0.1c0,0,0,0,0,0.1v0.2c0,0,0,0,0,0.1
			c0,0,0,0,0,0.1s0,0,0,0l0,0c-0.1,0.2-0.3,0.4-0.5,0.5h-0.1h-0.1c-0.3,0-0.6-0.1-0.7-0.3c0,0-0.1-0.1-0.1-0.1v-0.1c0,0,0-0.1,0-0.1
			V26.5C46.5,26.5,46.5,26.5,46.5,26.5c0,0,0-0.1,0-0.1V26.5z M45.9,30.6c0.5-0.5,1.3-0.7,2-0.7c0,0,0.1,0.1,0.1,0.1
			c0,0,0,0-0.1,0.1c-0.6,0.2-1,0.6-1.3,1.1C46.3,31.8,45.4,31.1,45.9,30.6z M33,45.7c-0.1,0-0.3,0-0.4,0h-0.5l-1,0.1
			c-0.1,0-0.1-0.1,0-0.1c0.3-0.2,0.6-0.4,0.8-0.6l0.4-0.3l0.2-0.1l0.1-0.1c0.2-0.3,0.7-0.4,1-0.2c0.1,0.1,0.3,0.2,0.3,0.4
			C34.1,45.3,33.6,45.9,33,45.7z M32.3,36.3c1.3-3.2,5.4-6,8.7-6.6c0.1,0,0.1,0,0.1,0.1c0,0.1,0,0.1-0.1,0.1l0,0
			c-3.3,1.2-6.4,3.6-8,6.8C32.9,37.1,32.1,36.8,32.3,36.3z M37.2,41.6c-0.7,0.2-1.3,0.6-1.8,1.2c0,0-0.1,0-0.1,0
			c0.3-0.8,0.8-1.5,1.5-1.9c0.1-0.3,0.5-0.4,0.8-0.3c0.1,0.1,0.3,0.2,0.3,0.4c0,0.3-0.2,0.7-0.5,0.7C37.4,41.6,37.3,41.6,37.2,41.6z
			 M40,49.1c-0.2,0.2-0.5,0.2-0.7,0.1C39.1,49.1,39,49,39,48.8c0,0,0-0.1,0-0.1c0-0.3,0.2-0.6,0.5-0.6c0.1,0,0.2,0,0.2,0
			c0.2,0.1,0.4,0.2,0.4,0.4C40.2,48.7,40.1,48.9,40,49.1z M40.1,35.2c-0.7,0.5-1.3,1.1-1.8,1.8c-0.4,0.6-0.8,1.2-1.2,1.8
			c-0.3,0.3-0.8-0.1-0.6-0.4c0.4-0.7,1-1.4,1.6-2c0.5-0.6,1.2-1,1.9-1.3C40.2,34.9,40.2,35.1,40.1,35.2z M40.7,32.6
			c-2.3,1-5.1,2.6-5.7,5.2c-0.1,0.5-0.9,0.3-0.8-0.2C35.3,35,38,33.2,40.7,32.6C40.7,32.5,40.8,32.6,40.7,32.6z M42.9,47.6
			c-0.7,0.1-1.4-0.2-1.8-0.7c-0.2-0.2-0.2-0.5-0.1-0.7v0c0.1-0.2,0.3-0.3,0.4-0.2h0c0.2,0,0.4,0.1,0.5,0.3c0.2,0.5,0.8,0.7,1,1.2
			C43,47.5,43,47.5,42.9,47.6L42.9,47.6z M43.6,50.8c-0.3-0.1-0.5-0.4-0.5-0.8c0.1-0.2,0.2-0.4,0.5-0.5c0.3,0.1,0.5,0.5,0.4,0.8
			C43.9,50.6,43.8,50.7,43.6,50.8L43.6,50.8z M44,38.6c0.1,0.1,0.7,0.4,0.6,0.6s-1.5-0.3-1.9-0.4c-0.1,0-0.2,0-0.3,0
			c-0.4-0.2-0.5-0.6-0.4-0.9c0.2-0.4,0.6-0.5,0.9-0.4c0,0,0.1,0,0.1,0.1c0,0.1,0.4,0.5,0.1,0.2l0.2,0.3C43.7,38.2,43.9,38.4,44,38.6
			L44,38.6z M34.3,28.4c2.9-1.7,5.7-3.3,9.2-3.3 M43.5,25.2c-3.1,0.5-6.5,1.6-8.7,3.8c-0.4,0.4-0.9-0.3-0.4-0.6L43.5,25.2z M31,33.2
			c0.3-0.5,0.7-1,1.2-1.3c1-0.8,2-1.6,3.2-2.2c2.4-1.4,5.1-2.4,7.8-2.9c0.1,0,0.1,0.1,0,0.1c-2.7,0.8-5.2,1.9-7.4,3.5
			c-1.5,0.9-2.7,2-3.8,3.3c0,0.1-0.1,0.1-0.1,0.2c-0.3,0.2-0.6,0.1-0.8-0.2C31,33.6,31,33.4,31,33.2z M30.8,40.7L30.8,40.7
			c0,0,0-0.1,0-0.1c0,0,0,0,0,0c0,0,0-0.1,0.1-0.1l0,0c0,0,0.1-0.1,0.1-0.1l0,0c0.1-0.1,0.2-0.1,0.3-0.2l0,0h0h0.1h0.1h0.2h0.1h0.1
			h0l0,0c0.1,0,0.2,0.1,0.3,0.2l0,0l0.1,0.1l0,0l0.1,0.1v0c0,0,0,0.1,0,0.1l0,0c0.1,0.3,0,0.7-0.2,0.9c-0.3,0.3-0.9,0.3-1.2,0
			C30.7,41.3,30.7,41,30.8,40.7z M28.4,46.5C28,46.4,27.9,46,28,45.7c0.1-0.2,0.2-0.3,0.4-0.4c0.3,0.1,0.5,0.5,0.4,0.8
			C28.7,46.3,28.5,46.4,28.4,46.5z M27.7,37.5c0.1-0.2,0.3-0.3,0.5-0.4c0.3-0.1,0.7,0.1,0.8,0.4c0.2,0.4,0.1,0.8-0.3,1
			c-0.4,0.2-0.8,0.1-1-0.3C27.6,38,27.6,37.7,27.7,37.5L27.7,37.5z M29,40.3c0,0,0.1,0,0.1,0c0,0,0,0.1,0,0.1
			c-0.3,0.3-0.5,0.7-0.6,1.1c-0.1,0.4-0.2,0.9-0.6,1.2c-0.2,0.1-0.6,0.1-0.7-0.2c0,0,0,0,0,0C26.7,41.5,28.2,40.7,29,40.3L29,40.3z"
			/>
		<path class="st4" d="M47,58.7c-0.1,0.1-0.2,0.1-0.3,0.1c0,0,0,0-0.1-0.1c-0.3-0.4-0.1-1.2-0.6-1.5c-0.3-0.2-0.7-0.1-0.9,0.1
			c0,0.1-0.1,0.1-0.1,0.2c-0.3,0.7,0.3,1.2,0.8,1.5c1.2,0.8,2.6,1.3,4.1,1.5c1.9,0.5,3.9,0.7,5.9,0.8c2.5,0.1,5-0.5,7.2-1.6
			c1-0.5,2-1.2,2.9-1.9c0.3-0.3,1-0.7,0.9-1.2s-0.6-0.5-0.9-0.3c-0.3,0.2-0.4,0.4-0.7,0.7c-0.2,0.2-0.6,0.5-0.9,0.7
			c-0.6,0.5-1.3,1-1.9,1.5c0,0,0,0-0.1,0s0,0,0-0.1c0.4-0.7,1-1.4,1.4-2.1c0.3-0.5,0.2-1-0.5-0.7c-0.5,0.2-1.1,1-1.5,1.4
			c-0.5,0.5-1,1.1-1.4,1.7c0,0.1-0.1,0.1-0.2,0c-0.1,0-0.1-0.1,0-0.2c0.3-0.8,0.7-1.5,1.2-2.2c0.4-0.6,0.1-1.2-0.6-0.6
			c-0.6,0.5-1,1.2-1.4,1.8C59,59,58.6,59.5,58.1,60C58.1,60,58,60,58,60c0,0,0-0.1,0-0.2c0.3-0.8,0.7-1.5,1.1-2.2
			c0.3-0.5,0.6-1.4-0.4-1c-0.6,0.2-1,1.1-1.3,1.6c-0.3,0.5-0.6,1.1-0.9,1.7c-0.1,0.1-0.2,0.1-0.2-0.1c0.1-0.5,1-3,0.3-3.2
			c-0.4-0.1-0.5,0.2-0.6,0.5c-0.4,0.8-0.8,1.7-1.2,2.5c0,0.1-0.2,0-0.1-0.1c0.1-0.7,0.2-1.4,0.3-2.1c0.1-0.4,0.1-1-0.6-0.6
			c-0.3,0.3-0.6,0.7-0.7,1.1c-0.2,0.5-0.4,1.1-0.6,1.6c-0.1,0.1-0.2,0-0.2-0.1c0.1-0.5,0.1-1,0.1-1.4c0-0.3,0.2-0.8,0.1-1.1
			c-0.2-0.4-0.7-0.2-1,0.1c-0.4,0.7-0.7,1.5-0.9,2.4c0,0.1-0.1,0.1-0.2,0.1c0,0-0.1,0-0.1-0.1c0-0.6,0.1-1.3,0.2-1.9
			c0.1-0.4,0.1-1.4-0.6-0.9c-0.3,0.2-0.4,0.9-0.4,1.2c0,0.5-0.1,0.9-0.3,1.4c0,0-0.1,0.1-0.1,0c0,0,0,0,0,0
			c-0.2-0.6-0.3-1.2-0.2-1.9c0-0.3,0-1.3-0.6-1c-0.3,0.1-0.3,0.6-0.3,0.9c0,0.5-0.1,0.9-0.2,1.3c0,0.1-0.1,0.1-0.2,0.1
			c0,0-0.1,0-0.1-0.1c-0.1-0.6-0.2-1.2-0.3-1.7c0-0.2-0.1-0.6-0.3-0.6c-0.1,0-0.2,0.1-0.2,0.2c-0.1,0.1,0,0.6,0,0.7
			C47.3,57.8,47.2,58.3,47,58.7z"/>
		<path class="st5" d="M50.4,69.1c0.7,0.1,0.9-0.4,1-1.1c0-0.5,0.1-0.9,0.3-1.4c0,0,0.1-0.1,0.1,0c0,0,0,0,0,0.1c0,0.5,0,1,0,1.5
			c0.1,0.5,0.5,1.1,1,0.9c0.7-0.2,0.6-1.3,0.5-1.9c0-0.1,0-0.1,0.1-0.1c0.1,0,0.1,0,0.1,0.1c0.3,0.7,0.1,1.3,0.8,1.7
			c1.5,0.8,1.4-0.8,1.4-1.8c0,0,0,0,0.1,0c0,0,0,0,0,0c0.2,0.6,0.1,1.5,0.8,1.9c1.1,0.6,1.4-0.4,1.3-1.3c0-0.1,0-0.1,0.1-0.1
			c0,0,0.1,0,0.1,0.1c0.2,0.5,0,1.4,0.5,1.7c1.2,0.6,1.5-1.3,1.4-2.1c0-0.1,0.2-0.2,0.2,0c0.2,0.6-0.1,1.7,0.3,2.2
			c0.6,0.6,1-0.1,1.1-0.6c0.1-0.5,0-0.9-0.1-1.4c0-0.1,0.1-0.1,0.1-0.1c0.3,0.4,0.4,0.8,0.4,1.3c0,0.4-0.2,0.9,0.2,1.1
			c1.3,0.7,1.3-1.6,1.4-2.3c0-0.1,0.2-0.1,0.2,0c0.1,0.6-0.2,1.8,0.5,2.1c1.4,0.6,1.3-1.6,1.1-2.3c-0.1-0.1,0.2-0.2,0.3-0.1
			c0.2,0.4,0.3,0.7,0.4,1.1c0.1,0.3,0,0.7,0.2,0.9c0.4,0.5,1-0.1,1.3-0.5c0.3-0.7,0.2-1.4-0.1-2c0-0.1,0-0.1,0.1-0.2
			c0.1,0,0.1,0,0.2,0c0.4,0.6,0.3,1.3,0.4,2c0.1,0.5,0.6,0.6,0.9,0.1c0.3-0.5,0.1-1.6-0.1-2.1c0-0.1,0.2-0.2,0.2-0.1
			c0.3,0.6,0.2,1.4,0.5,1.9c0.3,0.4,0.8,0.5,1.2,0.2c0.1-0.1,0.2-0.1,0.2-0.2c0.4-0.6,0-1.5-0.4-1.9c-0.1-0.1,0.1-0.4,0.2-0.3
			c0.6,0.4,0.6,1,1,1.6c0.2,0.5,0.8,0.6,1.3,0.4c0.4-0.2,0.5-0.6,0.5-1c-0.2-0.7-1.3-1.1-1.9-1.4c-0.8-0.4-1.7-0.8-2.6-1.1
			c-1.6-0.6-3.2-0.9-4.9-0.9c-0.7,0-1.4,0-2,0.1c-0.7,0.2-1.4,0.4-2,0.6c-1.3,0.3-2.6,0.6-3.9,0.7c-2.8,0.3-5.7,0.1-8.4-0.7
			c-0.7-0.2-1.3-0.5-2-0.9c-0.6-0.3-1.2-0.8-1.8-1.1c-1.3-0.5-3.4,0.3-4.7,0.5c-1.5,0.3-3.1,0.6-4.6,1c-0.4,0.1-0.9,0.2-1.1,0.6
			c0,0.1-0.1,0.2-0.1,0.3c0.1,0.5,0.9,0.9,1.3,1s0.9,0.4,1.2,0.2c0.5-0.3,0.1-1.2,0.2-1.6c0,0,0.1,0,0.1,0c-0.1,0.7,0.2,1.4,0.7,1.9
			c1.2,1,1.1-0.8,1.3-1.5c0,0,0.1-0.1,0.1-0.1c0,0,0,0,0.1,0.1c0.1,0.7-0.2,1.6,0.5,2.1c1.4,1.1,1.4-1.3,1.7-2c0,0,0.1-0.1,0.1-0.1
			c0,0,0.1,0.1,0.1,0.1c-0.2,0.9-0.4,2.7,0.9,2.9c1,0.1,0.7-1.6,0.8-2.3c0-0.1,0.1-0.1,0.1-0.1c0,0,0.1,0,0.1,0.1
			c0.1,0.8,0,1.5,0.6,2.1c0.2,0.2,0.8,0.5,1.1,0.2c0.3-0.3,0.2-1.5,0.4-2c0,0,0.1-0.1,0.1-0.1c0,0,0,0,0.1,0.1
			c0.1,0.8-0.1,1.8,0.5,2.4c0.3,0.3,0.9,0.5,1.2,0.1c0.3-0.4,0-1.6-0.1-2.1c0-0.1,0.1-0.1,0.2,0c0.2,0.7,0.5,1.3,0.8,1.9
			c0.8,1.2,0.9-0.8,1-1.3c0-0.1,0-0.1,0.1-0.1c0.1,0,0.1,0,0.1,0.1c0,0.4,0.1,0.8,0.2,1.2C49.5,68.6,49.9,69,50.4,69.1z M66.6,65
			c0.2,0,0.4,0,0.5,0.1l0.1,0c0.2,0.2,0.2,0.5,0,0.7c0,0,0,0,0,0l-0.1,0C67,66,66.8,66.1,66.5,66c-0.2-0.1-0.3-0.3-0.3-0.5
			C66.3,65.3,66.4,65,66.6,65z M63.7,64.3c0.2,0,0.3,0.1,0.3,0.3S63.9,65,63.7,65c-0.2,0-0.3-0.1-0.3-0.3S63.6,64.3,63.7,64.3z
			 M61.7,65.2c0.3,0,0.6,0.3,0.6,0.6c0,0.3-0.3,0.6-0.6,0.6s-0.6-0.3-0.6-0.6c0,0,0,0,0,0C61.1,65.5,61.4,65.2,61.7,65.2z
			 M57.3,65.3c0.4,0,0.7,0.3,0.7,0.7c0,0.4-0.3,0.7-0.7,0.7s-0.7-0.3-0.7-0.7c0,0,0,0,0,0C56.6,65.6,56.9,65.3,57.3,65.3z
			 M54.7,66.2c0.3,0,0.5,0.2,0.5,0.5s-0.2,0.5-0.5,0.5c-0.3,0-0.5-0.2-0.5-0.5S54.4,66.2,54.7,66.2z M50.6,65.9
			c0.3,0,0.5,0.2,0.5,0.5s-0.2,0.5-0.5,0.5s-0.5-0.2-0.5-0.5C50.2,66.1,50.4,65.9,50.6,65.9z M35.6,65.4c-0.2,0-0.4-0.2-0.4-0.4
			c0-0.2,0.2-0.4,0.4-0.4c0,0,0,0,0,0c0.2,0,0.4,0.2,0.4,0.4C36,65.2,35.8,65.4,35.6,65.4z M39.6,64.7c-0.1,0-0.2-0.1-0.2-0.2
			c0-0.1,0.1-0.1,0.2-0.2c0.1,0,0.2,0.1,0.2,0.2C39.8,64.7,39.7,64.8,39.6,64.7L39.6,64.7z M42.2,64.5c-0.1-0.1-0.2-0.1-0.3-0.3
			c0-0.1,0-0.3,0.1-0.4c0.1-0.1,0.2-0.2,0.3-0.2c0.3-0.1,0.5,0.1,0.6,0.3c0,0,0,0.1,0,0.1c0,0.3-0.3,0.4-0.5,0.4
			C42.3,64.6,42.2,64.5,42.2,64.5L42.2,64.5z M44.4,65c-0.3-0.1-0.5-0.4-0.4-0.8c0.1-0.2,0.2-0.4,0.4-0.4c0.3,0.1,0.5,0.4,0.5,0.8
			C44.8,64.8,44.7,65,44.4,65L44.4,65z M47.3,65.3c-0.2,0-0.4-0.2-0.4-0.4c0-0.2,0.2-0.4,0.4-0.4c0.2,0,0.4,0.2,0.4,0.4
			S47.5,65.3,47.3,65.3L47.3,65.3L47.3,65.3z"/>
		<path class="st5" d="M86.2,62.6c0.6-0.2,1.1-1.4,1.4-2c0.2-0.5,0.5-2.8-0.5-2.4c-0.3,0.1-0.5,0.4-0.6,0.7
			c-0.1,0.4-0.2,0.8-0.2,1.3c-0.1,0.5-0.2,1.1-0.3,1.6C85.8,62.2,85.7,62.8,86.2,62.6z"/>
		<path class="st5" d="M25,59.5c0.2-0.3,0-0.5-0.2-0.8c-0.2-0.2-0.1-0.5-0.4-0.6c-0.4-0.1-0.8,0.5-0.9,0.8c-0.1,0.4,0.1,1.4,0.6,1.4
			c0.1,0,0.1,0,0.2,0c0.1-0.1,0.2-0.3,0.2-0.4C24.6,59.9,24.9,59.7,25,59.5z"/>
		<path class="st5" d="M77.1,55.5c0.8-0.1,1.6-0.2,2.4-0.5c0.8-0.3,1.6-0.6,2.3-1.2c0.1-0.1,1.4-1.1,0.5-1.1c-0.2,0-0.9,0.5-1.1,0.6
			c-0.8,0.4-1.7,0.7-2.6,0.9c-0.8,0.2-1.6,0.5-2.4,0.6c-0.1,0-0.8,0-0.9,0.2c0,0-0.1,0.1-0.1,0.2C75.4,55.6,76.9,55.5,77.1,55.5z"/>
		<path class="st1" d="M74.7,57.7C74.6,57.7,74.6,57.8,74.7,57.7c-0.1,0-0.1,0-0.1,0c-0.2-0.2-0.5-1.8-1.2-1.1
			c-0.2,0.2-0.1,1.1-0.3,1.4c0,0.1-0.1,0.1-0.1,0.1c0,0-0.1,0-0.1-0.1c-0.2-0.5,0-1.8-0.8-1.9c-0.3,0-0.5,0.2-0.6,0.4
			c-1.5,2.2,2.7,2,3.8,1.9c1.9-0.2,3.8-0.7,5.6-1.3c1.8-0.5,3.5-1.3,4.9-2.5c0.9-0.7,1.5-1.7,1.8-2.8c0.1-0.7-0.4-2.2-0.8-0.9
			c-0.2,0.6-0.4,1.3-0.6,1.9c-0.1,0.2-0.4,0.2-0.4-0.1c0-0.2,0.2-1.8-0.1-1.9c-0.5-0.2-0.4,0.8-0.4,1.1c-0.1,0.9-0.4,1.7-0.8,2.5
			c0,0.1-0.1,0.1-0.1,0c0-0.2,0.3-1.4-0.3-1.3c-0.2,0.1-0.3,0.6-0.3,0.8c-0.1,0.5-0.3,1-0.6,1.5c-0.1,0.1-0.2,0.1-0.2-0.1
			c0.1-0.8-0.3-1.2-0.8-0.4c-0.3,0.4-0.4,1-0.7,1.4c0,0.1-0.2,0-0.2,0c0.1-0.6-0.1-1.3-0.8-0.8c-0.4,0.3-0.4,0.8-0.8,1.2
			c-0.3-0.4-0.4-1.1-1.1-0.6c-0.4,0.3-0.6,0.9-0.8,1.3c0,0.1-0.1,0.1-0.2,0c0,0-0.1-0.1-0.1-0.1c0.1-0.5,0-1.3-0.7-0.9
			c-0.4,0.2-0.4,0.6-0.5,1c0,0-0.1,0.1-0.1,0.1c0,0,0,0-0.1-0.1c-0.1-0.4-0.1-1.4-0.9-1.1C74.7,56.8,74.9,57.4,74.7,57.7z"/>
		<path class="st6" d="M83.1,71.6c-0.4,0-0.3,0.1-0.6,0.4c-0.2,0.3-0.6,0.6-1,0.7c-0.6,0.1-1.2-0.3-1.7-0.1
			c-0.4,0.2-0.5,0.7-0.7,1.1c-0.4,0.6-1,1.1-1.7,1.3c-0.8,0.1-1.7,0.4-2.4,0.7c-0.4,0.3-0.8,0.5-1.3,0.6c-0.3,0.1-0.7,0.1-1,0
			c-0.3-0.1-0.5-0.3-0.8-0.1c-0.3,0.2-0.3,0.8-0.7,1.1c-0.5,0.4-1.3,0.5-1.9,0.1c-0.2-0.1-0.5-0.3-0.7-0.1c-0.3,0.2-0.1,0.5-0.3,0.6
			c-0.4,0.4-0.9,0.5-1.4,0.4c-0.8-0.1-0.8-1.4-1.7-1.5s-1.4,0.8-2.1,1C62.6,78,62,78,61.5,77.9c-0.6-0.2-0.8-0.6-1.4-0.3
			c-0.5,0.2-0.8,0.7-1.3,0.9c-0.7,0.4-1.5,0.5-2.3,0.5c-0.7-0.1-1.3-0.4-1.9-0.9c-0.6-0.6-0.6-0.2-1.3,0.1c-0.5,0.2-1.1,0.3-1.6,0.1
			c-0.4-0.1-0.8-0.3-1.2-0.6c-0.5-0.4-0.5-0.9-1.2-1c-0.6,0-1.1-0.4-1.5-0.9c-0.4-0.6-0.2-0.9-1-0.7c-0.5,0.1-1,0.1-1.4-0.1
			c-0.7-0.2-0.8,0-1.4,0.4c-0.5,0.3-1,0.5-1.5,0.6c-1,0.2-2.4,0.2-2.5-1.1c0,0,0-0.1,0-0.1c-1.1,0-2.1-0.7-2.4-1.8
			c-0.1,0-0.2,0-0.3-0.1c-0.5-0.1-0.7-0.8-1.1-0.8c-0.4,0-0.7,0.5-1,0.6c-0.7,0.4-1.5,0.4-2.1,0h-0.1c-0.9,0.3-1.9,0.2-2.7-0.3
			c-0.3-0.2-0.5-0.7-0.8-0.8c-0.4-0.1-0.6,0.4-0.5,0.6c0.2,0.5,0.4,1,0.7,1.4c0.7,0.9,1.5,1.6,2.4,2.3c1.8,1.2,3.8,2.1,5.9,2.7
			c4.3,1.4,8.7,2.5,13.2,3.2c7.1,1.1,14.3,0.5,21.1-1.6c2.5-0.8,5-1.8,7.3-3.1c1.1-0.7,2.2-1.4,3.2-2.3c0.7-0.7,2.3-1.7,1.4-2.9
			C84,71.7,83.6,71.5,83.1,71.6z"/>
		<path class="st2" d="M81.4,69c0.7-0.8,1.3-1.7,1.6-2.7c0.6-1.4,1.2-2.8,1.6-4.2c0.1-0.5,0.6-1.4,0.3-1.9c-0.2-0.2-0.6-0.2-0.9,0
			c-0.1,0.1-0.1,0.2-0.2,0.3c-0.1,0.6-0.3,1.2-0.5,1.7c0,0.1-0.1,0.1-0.1,0.1s-0.1-0.1-0.1-0.1c0.1-0.4,0.4-1.3-0.1-1.5
			c-0.3-0.1-0.6,0-0.7,0.3c-0.3,0.5-0.1,1.3-0.2,1.9c0,0.1-0.2,0.1-0.2,0c-0.1-0.4-0.2-2.2-1-1.9c-0.7,0.2-0.2,1.8-0.3,2.3
			c0,0.1-0.2,0.2-0.2,0c-0.1-0.3-0.7-2.6-1.4-1.7c-0.3,0.4,0.3,1.3,0.3,1.7c0,0,0,0,0,0c-0.3-0.4-0.6-0.8-0.9-1.2
			c-0.3-0.3-1.2-0.7-1.3,0.1c0,0.2,0.3,0.6,0.4,0.7c0.1,0.3,0.2,0.6,0.2,0.9c0,0.1-0.1,0.1-0.1,0.1c0,0-0.1,0-0.1-0.1
			c-0.4-0.9-1-1.9-2.1-1.8c-1.4,0.1-0.6,1-0.2,1.7c0,0,0,0.1,0,0.2c0,0-0.1,0-0.2,0l0,0c-0.3-0.4-0.7-0.8-1.1-1.1
			c-0.2-0.2-0.4-0.3-0.6-0.4c-0.3-0.1-1.1-0.4-1.1,0.2c0,0.3,0.5,0.9,0.6,1.2c0,0.1-0.1,0.1-0.1,0c-0.3-0.5-0.7-0.9-1.2-1.3
			c-0.2-0.2-1.1-0.8-1.3-0.3c0.1,0.3,0.2,0.6,0.3,0.9c0,0.1-0.1,0.1-0.1,0c-0.3-0.5-0.8-1-1.3-1.3c-0.2-0.1-1.2-0.7-1.2-0.3
			c0,0.2,0.7,0.6,0.8,0.7c0,0,0,0.1,0,0.1c0,0,0,0-0.1,0c-0.5-0.1-1-0.2-1.5-0.4C66.9,62,66,62,66.4,62.5c0.2,0.3,1.3,0.3,1.6,0.4
			c1.3,0.3,2.5,0.8,3.7,1.3c1.4,0.7,2.7,1.4,4,2.3c0.8,0.6,1.5,1.3,2.2,2C78.9,69.5,80.3,70.1,81.4,69z"/>
		<path class="st4" d="M41.5,70.3c0.3-0.6-0.4-1.2-0.7-0.5c-0.2,0.5-0.5,1-0.8,1.5c-0.3,0.5-1,0.9-1.1,1.4c-0.2,0.9,1.3,1,1.8,0.7
			c0.4-0.1,0.7-0.4,0.5-0.9c-0.1-0.2-0.4-0.3-0.5-0.4c-0.2-0.3-0.2-0.7,0-1C41.1,70.9,41.3,70.7,41.5,70.3z"/>
		<path class="st4" d="M32.3,69c-0.4-0.1-0.8,0.3-1.3,0.2c-0.5-0.1-0.7,0-0.8,0.2c0,0.1,0,0.1,0,0.2c-0.2,0.7,0.1,1.3,0.6,1.8
			c0.3,0.2,0.8,0.6,1.2,0.4c0.1,0,0.1-0.1,0.2-0.1c0.3-0.3,0.1-1.1,0.2-1.5C32.5,69.7,33,69.1,32.3,69z"/>
		<path class="st4" d="M34.5,71.8c0.7-0.3,0.8-1.5,0.8-2.2c0-0.3,0.3-0.6,0.6-0.6c0.2,0,0.4,0.1,0.5,0.3c0.4,0.6,0.5,1.4,0.9,2.1
			c0.7,1.2,1.5-0.1,1.9-0.8c0.2-0.4,0.8-1.3,0.6-1.8c-0.2-0.5-0.8-0.7-1.3-0.6c-1.1,0.2-0.6,0.9-0.5,1.8c0,0.2-0.3,0.2-0.3,0
			c-0.2-0.5-0.4-1-0.7-1.5c-0.3-0.5-0.8-1.6-1.6-1.3C35,67.4,35,68.4,35,68.8c0,0.1-0.1,0.1-0.2,0c-0.1-0.3-0.5-2.6-1-2.3
			c-0.3,0.2,0,1.8,0,2.1c0.2,0.5,0.1,1-0.1,1.5C33.3,70.7,33.4,72.3,34.5,71.8z"/>
		<path class="st4" d="M63,74c-0.3,0.5-0.6,1-0.8,1.5c-0.2,0.4-0.8,0.9-0.2,1.2c0.5,0.2,0.9-0.1,1.2-0.5c0.1-0.2,0.2-0.3,0.2-0.5
			c0-0.4,0.1-0.7,0.2-1.1c0.1-0.2,0.4-0.5,0.3-0.7C63.8,73.7,63.2,73.8,63,74z"/>
		<path class="st4" d="M65,70.9c-0.6-0.3-1.5,0-2.2,0c-0.4,0-1.1-0.2-1.2,0.4c-0.1,0.4,0.1,1,0,1.5c0,0.1-0.1,0.1-0.2,0.1
			c0,0-0.1-0.1-0.1-0.1c-0.1-0.6-0.2-1.8-0.9-2.1c-0.5-0.3-1-0.1-0.9,0.6c0.1,1.2,0.6,2.1,0.2,3.3c0,0-0.1,0.1-0.1,0c0,0,0,0,0,0
			c-0.3-0.7-0.6-1.4-0.8-2.1c-0.2-0.6-0.5-1.2-0.8-1.8c-0.2-0.4-0.5-0.5-0.6,0.2c-0.1,0.6-0.1,1.3-0.3,2c0,0.1-0.1,0.1-0.1,0.1
			s-0.1-0.1-0.1-0.1c0-0.5-0.1-0.9-0.1-1.4c-0.1-0.5-0.1-1-0.6-1.2c-0.3-0.2-0.7-0.1-0.9,0.1c0,0,0,0,0,0.1
			c-0.2,0.3,0.1,0.7,0.2,1.1c0.1,0.5,0.2,1,0.1,1.5c0,0.1-0.1,0.2-0.2,0.2c-0.1,0-0.2-0.1-0.2-0.2c-0.2-0.7-0.4-1.4-0.8-2.1
			c-0.1-0.2,0-0.5-0.3-0.6c-0.2-0.1-0.5,0.2-0.5,0.4c0,0.5,0,1.1,0,1.6c0,0.1-0.1,0.2-0.2,0.2c-0.1,0-0.1,0-0.1-0.1
			c-0.1-0.3-0.2-0.7-0.2-1c-0.1-0.8-0.6-1.5-1.5-1c-1.8,0.9,0.7,1.8,1.4,2.2c0.6,0.4,0.8,1.1,1.1,1.7c0,0.1,0.1,0.2,0.2,0.3
			c0.3-0.1,0.5,0,0.6,0.3c0,0,0,0,0,0.1c0.6-0.1,1.1-0.3,1.6-0.6c0.6-0.3,1.4-0.1,1.9,0.3c0.7,0.5,1.5,1.9,2.5,1
			c0.6-0.5,0.7-1.3,1.1-1.9c0.3-0.6,0.9-1,1.6-1.1c0.3,0,0.7,0,1,0.1C65.4,72.8,65.8,71.3,65,70.9z"/>
		<path class="st4" d="M55.5,75.8c-0.6,0.2-0.5,1-0.2,1.3c0.7,0.7,1.7,0.8,2.6,0.5c0.5-0.2,1-0.4,0.7-1c-0.5-0.9-0.9-0.4-1.3,0.2
			c-0.1,0.1-0.2,0-0.2-0.1c0.1-0.3,0.5-1,0.3-1.2c-0.2-0.2-0.6,0-0.7,0.2c-0.2,0.4-0.2,0.9-0.4,1.3c0,0,0,0-0.1,0c0,0,0,0,0,0
			C56.3,76.6,56.2,75.6,55.5,75.8z"/>
		<path class="st4" d="M42.3,74c-0.2,0.1-0.3,0.3-0.3,0.5c-0.4,1.1,1.5,0.1,1.8-0.3c0.4-0.5,1-1.3,1.8-0.8c0.2,0.2,0.4,0.4,0.5,0.6
			c0.6,0.1,0.8,0.2,1.3-0.3c0.2-0.2,0.6-0.2,0.8,0c0,0,0.1,0.1,0.1,0.1c0.1,0.2,0.4,0.9,0.6,0.7c0.3-0.4,0.4-0.8,0.5-1.2
			c0.2-0.7,0.2-1.5-0.1-2.2c-0.1-0.3-0.5-1.4-0.9-1.3c-0.4,0.2-0.1,0.7,0,1c0.1,0.5,0.1,1.1,0,1.6c0,0.1-0.1,0.1-0.2,0.1
			c0,0-0.1,0-0.1-0.1c-0.1-0.3-0.6-3.1-1.1-2.7c-0.3,0.2,0.1,0.9,0.1,1.2c0.1,0.4,0,0.9-0.1,1.3c0,0.1-0.1,0.1-0.2,0.1
			c-0.1,0-0.1-0.1-0.1-0.1c0-0.4-0.1-0.8-0.3-1.2c-0.1-0.3-0.1-0.6-0.1-0.9c-0.1-0.3-0.3-0.6-0.6-0.3c-0.3,0.3-0.1,0.6-0.1,0.8
			c0,0.3-0.1,0.4-0.2,0.6c0,0.5,0,1,0,1.5c0,0.1-0.1,0.1-0.2,0.1c0,0-0.1,0-0.1-0.1c0-0.6-0.1-1.3-0.4-1.9c-0.1-0.2-0.3-1.9-0.8-1.1
			c-0.2,0.3-0.1,1.1-0.2,1.5c0,0.1-0.1,0.1-0.2,0.1c0,0,0,0-0.1-0.1c-0.2-0.4-0.2-0.7-0.2-1.1c0-0.3,0.2-0.6-0.2-0.6
			c-0.2,0-0.5,0.3-0.5,0.5c0,0.2,0.1,0.4,0.1,0.6c-0.1,0.3-0.2,0.5-0.4,0.7c-0.6,0.8,0.4,0.7,0.9,1c0.3,0.2,0.4,0.6,0.2,0.9
			c0,0,0,0,0,0C43.1,73.5,42.7,73.7,42.3,74z"/>
		<path class="st4" d="M29.5,68.3c0.2-0.2,0.5-0.3,0.8-0.4c0.8,0,1.3,0.3,1.8-0.5c0.3-0.3,0.3-0.7,0.2-1.1c-0.1-0.3-0.5-0.7-0.8-0.5
			c-0.4,0.3-0.2,1-0.5,1.3c-0.1,0.1-0.1,0.1-0.2,0c0,0,0,0,0-0.1c-0.1-0.5,0.2-1.3-0.6-1c-0.4,0.2-0.7,0.4-0.9,0.8
			c-0.2,0.3-0.3,0.7-0.5,1c0,0.1-0.1,0.1-0.2,0c0,0-0.1-0.1-0.1-0.1c0.2-0.7,0.3-1.2-0.3-1.6c-0.5-0.3-1.1-0.5-1.7-0.4
			c-0.2,0.1-0.3-0.2-0.2-0.3c0.6-0.7,0.7-1.6,0.2-2.4c-0.3-0.4-0.8-0.6-1.1-1c0,0-0.1-0.1,0-0.2s0.1-0.1,0.2,0l0,0
			c0.6,0.3,1.1,0.4,1.3-0.3c0.2-0.6,0.1-1.3-0.7-1.2c-0.8,0-1.4,0.7-1.4,1.5c0.1,0.6,0.7,1.1,0.8,1.8c0.1,0.7-0.8,2.4,0.2,2.5
			c0.6,0.1,1.1,0.5,1.5,1c0.4,0.6,0.3,1.5,0.9,2C28.9,70,29,68.6,29.5,68.3z"/>
		<path class="st4" d="M89.1,62.6c0.4-0.2,1.3-0.9,0.6-1.4c-0.5-0.4-1,0.1-1.3,0.5c-0.2,0.5-0.6,1-1,1.4c-0.3,0.3-0.7,0.6-1.1,0.9
			c-0.1,0.1-0.4,0.1-0.4,0.3c0,0.5,1.9-0.5,2.1-0.6c0.1,0,0.1,0,0.1,0.1c0,0,0,0.1,0,0.1c-0.5,0.6-1.1,1-1.7,1.4
			c-0.6,0.4-1.4,0.5-2.1,0.9c-0.6,0.4-0.9,1-1,1.7c-0.1,0.7,0.7,1.1,0.6,1.9c0,0.1-0.2,0.1-0.2,0c-0.8-1.2-1.1-0.5-2,0.1
			c-0.3,0.2-0.9,0.4-1.1,0.7c-0.1,0.2-0.1,0.5,0.2,0.7c0.2,0.1,0.5,0.1,0.7-0.2c0,0,0-0.1,0-0.1c0.1-0.2,0.2-0.3,0.3-0.4
			c0.2-0.2,0.4-0.4,0.7-0.5c0.5-0.1,1.1,0.2,1.6,0.4c1.5,0.5,0.7-1.2,0.3-2c-0.4-0.5-0.2-1.2,0.3-1.6c0.5-0.4,1.2-0.2,1.6,0.3
			c0.1,0.1,0.1,0.1,0.1,0.2c0.9,1.1,0.9-0.4,0.9-1.1c0-0.5,0-1.2,0.6-1.4c0.3-0.1,0.6-0.1,0.9,0c1.5,0.3,0.5-1.2,0.1-1.6
			C88.7,63.2,88.7,62.7,89.1,62.6z"/>
		<path class="st4" d="M65.6,75.7c0.4-0.1,0.8,0.1,1.1,0.4c0.1,0.1,0.7,1.4,0.8,0.7c0-0.3,0.1-0.5,0.3-0.8c0.4-0.5,1.2-0.6,1.7-0.1
			c0,0,0,0,0,0c0.5,0.4,1.2,0.8,1.4-0.2c0.1-0.5,0-1.1-0.4-1.4c-0.5,0-0.9-0.2-1.2-0.6c-0.2-0.5-0.3-1-0.9-1.1
			c-0.4-0.1-0.8,0.1-0.7,0.6c0.1,0.5,0.2,1,0.3,1.5c0,0.2-0.2,0.3-0.3,0.1c-0.3-0.5-0.6-1.9-1.4-1.7c-0.3,0.1-0.5,0.4-0.7,0.6
			C64.9,74.5,64.5,75.9,65.6,75.7z"/>
		<path class="st4" d="M72.6,72.3c1.4,0.5,2-0.6,2-1.8c0-0.3,0.3-0.6,0.6-0.6c0.5,0,1.2-0.5,0.7-1.1c-0.5-0.4-1.2-0.4-1.6,0.1
			c-0.1,0.1-0.1,0.2-0.2,0.2c-0.1,0.6-0.2,1.2-0.2,1.8c0,0.1-0.1,0.1-0.2,0.1c0,0-0.1,0-0.1-0.1c-0.1-0.3-0.2-2.3-0.9-1.4
			c-0.3,0.4,0,1.2-0.2,1.7c0,0-0.1,0.1-0.1,0c0,0,0,0,0,0c-0.1-0.4-0.1-1.1-0.4-1.3c-0.4-0.2-0.8-0.1-1.1,0.2
			c-0.2,0.3,0.1,1.1,0.2,1.5c0,0.2-0.2,0.3-0.3,0.1c-0.2-0.5-0.4-1.2-0.8-1.4c-0.5-0.2-1.1-0.2-1.5,0.1c-0.3,0.1-1.2,0.3-0.9,0.8
			c0.2,0.3,1.3,0.2,1.7,0.4c0.3,0.2,0.6,0.4,0.8,0.7c0.1,0.2,0.2,1.2,0.6,0.7C71.2,72.4,71.7,72,72.6,72.3z"/>
		<path class="st4" d="M73.8,74.9c0.6-0.4,1.2-0.7,1.9-0.8c0.7-0.2,1.9-0.2,2.4-0.8c0.5-0.7,0.6-1.6,0.4-2.3
			c-0.4-1.1-1.5-1.3-2.4-0.6c-0.4,0.3-0.3,0.5-0.3,1c0,0.9-0.6,1.7-1.5,2c-0.3,0.1-0.7,0.2-1.1,0.2c-0.3,0-0.6-0.2-0.9-0.1h-0.1
			c-0.3,0.1-0.6,0.4-0.5,0.8c0,0,0,0.1,0,0.1C72,74.9,73.3,75.3,73.8,74.9z"/>
		<path class="st4" d="M50.5,75.7c0.3,0.2,0.4,0.6,0.6,0.9c0.4,0.6,1.2,0.7,1.8,0.4c1-0.6,0.3-1.7,0-2.5C52.7,74,52,72.7,51.3,73
			c0.1,1,0.5,1.8,0.5,2.8c0,0.1-0.1,0.2-0.2,0.2c-0.1,0-0.2-0.1-0.2-0.1c-0.1-0.4-0.3-0.8-0.4-1.2c-0.1-0.3-0.2-0.6-0.3-0.9
			c-0.1-0.2-0.5-0.6-0.7-0.2c-0.2,0.3,0.1,0.6,0.2,0.9c0,0,0,0.1,0,0.1c-0.1,0.3-0.7,0.6-0.5,0.9C49.8,75.7,50.3,75.6,50.5,75.7z"/>
		<path class="st3" d="M87.7,55.8c0.1-0.3,0-0.6-0.3-0.8c-0.1,0-0.2-0.1-0.2,0c-0.4,0.1-0.9,0.8-1.3,1.1c-1,0.7-2.1,1.3-3.2,1.8
			c-2.2,0.8-4.4,1.4-6.7,1.7c-1.5,0.3-3.1,0.2-4.6-0.2c-0.4-0.1-1.2-0.7-1.6-0.3c-0.4,0.4,0.1,1.1,0.5,1.3c1.1,0.4,2.3,0.5,3.5,0.5
			c1.6-0.1,3.3-0.3,4.9-0.7c1.8-0.3,3.6-0.7,5.3-1.3C85,58.4,87.4,57.3,87.7,55.8z"/>
		<path class="st3" d="M67.1,58.5c-0.4,0.1-0.8,0.5-1.1,0.8c-0.6,0.5-1.3,0.9-2,1.3c-2.5,1.4-5.3,2.1-8.1,2
			c-2.4-0.1-4.8-0.4-7.2-1.1c-0.4-0.1-3.1-1.3-3.3-1.1c-0.2,0.3,0.6,1,0.7,1.3c0.1,0.1,0,0.2-0.1,0.2c-0.3,0-0.6-0.2-0.8-0.2
			c0,0.2,0.2,0.4,0.3,0.5c0.4,0.3,0.9,0.5,1.4,0.7c1,0.4,2.1,0.7,3.2,0.9c2.2,0.4,4.4,0.4,6.6,0.1c2.5-0.3,5-1,7.3-2.1
			c1.1-0.5,2.2-1.2,3.2-2c0.4-0.3,2.5-1.8,2.2-2.3c-0.4,0.2-0.7,0.7-1,1c-0.6,0.8-1.5,1.4-2.5,1.8 M65.9,60.2
			c0.3-0.5,1.1-1.1,1.2-1.7L65.9,60.2z"/>
	</g>
</g>
</svg>
