<svg xmlns="http://www.w3.org/2000/svg" viewBox="0 0 87.5 177.01"><defs><style>.cls-1{fill:#480000;}.cls-1,.cls-2,.cls-3{fill-rule:evenodd;}.cls-2{fill:#e2e2e2;}.cls-3{fill:#c46a62;}</style></defs><g id="Capa_2" data-name="Capa 2"><g id="Capa_1-2" data-name="Capa 1"><path class="cls-1" d="M87.23,6.12c-.66-1-2-1.31-2.84-2.08-1.24-1.11-3-4.75-7.8-3C76.87,1,60.3,7.3,43.77,6.64c-16.53.44-33-6-32.74-6A8.84,8.84,0,0,0,5.82.23C4.41.56,3.63,2.07,2.65,3S.5,4.15.1,5.45C-.25,6.6.41,7.64.67,8.79c.4,1.7-.21,3.47.32,5.16s2.73,3.39,4.47,4a109.67,109.67,0,0,0,28.2,6.63c-3.6,44-2.88,39.45,2.74,43.85,2.45,1.92,4.24,5.34,4.06,13.25-1.62,72.19-18.31,81,1.07,94.94a1.55,1.55,0,0,0,1.88.07c19.33-12.81,2.93-24.67,2.45-95,0-7.91,1.79-11.3,4.27-13.18,5.69-4.31,6.34.24,3.43-43.82A110.22,110.22,0,0,0,81.93,18.5c3.92-1.44,4.49-5.1,4.92-8.38C87,8.89,88,7.16,87.23,6.12ZM38.31,49.68c-.09,1.69-2.18,2.12-2.22-.14,0-2.47,0-16.63,0-24.71,1.07.08,2.14.14,3.2.19C39,33.4,38.41,47.8,38.31,49.68ZM45,49.32c-.11,2.19-2.56,2.57-2.66,0s-.2-16.05-.31-24.16c1.18,0,2.35,0,3.53,0C45.27,33.49,45,47.54,45,49.32Zm3.7-.75c-.2-2.77-.28-15.68-.41-23.5.95,0,1.9-.08,2.86-.14,0,8.1.12,22,.14,23.91C51.27,51.49,48.92,52.42,48.65,48.57Z"/><path class="cls-2" d="M49.67,67.23a11,11,0,0,0-3.56,5.12,61.19,61.19,0,0,0-1.34,12c-.17,3.63.14,7.27,0,10.9-.29,6.73.51,13.81,1,20.54,1.45,18,3.34,17.18,0,17.68-.13,0-.2.24,0,.27a3.43,3.43,0,0,1,1.87.62c.51.53,1,2.21.3,2.79s-1.81.1-2.47.11a0,0,0,0,0,0,.09c3.71,1.16,4.24,4,3,4.84-.6.4-3.21-.7-4.17-.68,0,0,0,0,0,0,3.88.9,5.68,4,5.59,5-.13,1.39-1.1.46-1.85,0-2.21-1.31-5-1.77-4.33-1.38a17.37,17.37,0,0,1,5.18,3.71c.47.58,1.73,2.51.55,2.89-.64.21-2.08-1.06-2.65-1.35a25.47,25.47,0,0,0-3.25-1.33.16.16,0,0,0-.13.29,20.89,20.89,0,0,1,4.43,2.87c.84.76,2.4,2.8,2.37,4-.06,2.21-1.85-.63-6-2.4-.12-.06-.19.13-.09.2,7.29,5,6.87,8.33,6.06,8.55-.48.13-2.19-1.79-2.63-2.1-2.56-1.75-4.71-2.16-4-1.69.4.27,7.05,4.28,6.27,6.85-.43,1.43-1.48.7-2.2-.08-2-2.18-5.69-3.6-4.78-2.67,1.73,1.76,4.88,3.7,5,5.32.07.72-.43,2-1.33,1.84-.44-.08-1.27-1.32-1.67-1.61a8.11,8.11,0,0,0-2.5-1.32.16.16,0,0,0-.12.29c4.1,2.24,3.82,5,2.16,4.86-.65,0-2.31-1.92-2.29-1,.8.77,2.17,2.77-.15,2.83-.83,0-1.34-.86-1.93-1.37a18.91,18.91,0,0,1-1.45-1.38c-4.4-4.64-4.61-10.82-4-16.86,1.08-11.2,3.48-22.27,4.86-33.44q1.2-9.63,1.89-19.3a78.63,78.63,0,0,0,.31-8.93c-.09-2.25.35-4.48.26-6.73-.07-1.91-.21-3.88-.18-5.79.07-4.4-.44-9.25-3.89-12.4A38.18,38.18,0,0,1,33.61,64c-2.8-3.46-1.21-10.22-.91-14.22.31-4.22.41-8.47.73-12.69.1-1.24-.28-7,.8-7.88s.61,3,.58,3.55a62.43,62.43,0,0,0-.33,8.31c.15,2.06.08,4.14.32,6.2.18,1.63.47,5.88,2.68,6.24,3.17.51,2.28-11.65,2.27-13.25,0-1.94.22-3.86.17-5.8,0-1-.3-2.59.63-3.34,1,.81.57,3.7.53,4.92a85.56,85.56,0,0,0,.25,12.19c.14,1.27.32,3.17,1.2,4.17,2.41,2.73,3.7-2.88,3.57-4.44A40.17,40.17,0,0,1,46,41.21c.2-2.35-.09-4.57.06-6.92,0-.18.69-3.14.92-2.89,1.07,1.2.48,3.64.39,5.13-.12,2-.1,4.11-.12,6.15,0,2.55-.33,8.15,1.81,10s3-2.14,3.25-3.57c.6-3.27.09-6.63,0-9.92,0-1.52-.09-3.26-.15-4.86,0-1.33-.43-3.61.22-4.83,1.39.42,1,4.05.93,5.15-.14,6.16.69,12.3.7,18.46,0,4.72,0,10-3.65,13.48Z"/><path class="cls-3" d="M85.61,9.93c-.23,1-.15,5.64-4.14,7.09.33,0-18.77,7.2-37.82,6.44-19,.5-38-7-37.72-7A6.89,6.89,0,0,1,2.6,13.74a6.27,6.27,0,0,1-.47-3.16C2,7.07.49,6.4,2.45,5.06c1.66-1.15,2.91-4.94,8.11-3a3,3,0,0,1,2,1.61c.25.71-.18.92-.6,1.4-3.19,3.69-3.41,7.77-3.05,7.38,1.15-1.24,1.66-3,2.85-4.18C15,5,18.81,4.8,20.32,5.44c3,1.28,1,3.08.53,3.76A22,22,0,0,0,18,15.62a.31.31,0,0,0,.57.24c.81-1.54,4.36-6.51,6.24-7.47C27.1,7.24,30,7.19,31,8c2,1.52-1.09,3.16-.6,9.37a.3.3,0,0,0,.54.15c2.34-3.66,1.45-9.38,8.75-9,1.17.06,3.07.94,3.17,2.31a61.54,61.54,0,0,1-.23,6.79c0,.85,1.46-1,2.17-4.27.45-2,.28-3.92,3.75-4.77A5.1,5.1,0,0,1,54.35,11c1.09,2.1,1.51,4.52,2.79,6.55a.3.3,0,0,0,.54-.14c.61-7-3-7.43-.31-9.43a4.51,4.51,0,0,1,2-.8c3.17-.54,5.42,2.3,7.19,4.6A29.65,29.65,0,0,1,69.5,16a.31.31,0,0,0,.57-.23A21.57,21.57,0,0,0,67.2,9.21c-.49-.72-1.12-1.45-.82-2.42.66-2.13,5.29-3.14,10,1.72,1.19,1.24,1.68,3,2.82,4.2a0,0,0,0,0,0,0c.37-1.93-1-4.25-1.89-5.8-.66-1.11-1.49-2.08-.39-3.35C80-.07,84.06,5.32,84.66,5.8a2.89,2.89,0,0,1,1.08,1.14A5.2,5.2,0,0,1,85.61,9.93Z"/></g></g></svg>