<svg xmlns="http://www.w3.org/2000/svg" viewBox="0 0 49.8 152.23"><defs><style>.cls-1{fill:#480000;}.cls-2{fill:#de2831;}.cls-3{fill:#f2a759;}.cls-4{fill:#d37839;}</style></defs><g id="Capa_2" data-name="Capa 2"><g id="Capa_1-2" data-name="Capa 1"><path class="cls-1" d="M49,136.08c-.2-1-.47-2.06-.79-3.19-.13-.47-.27-1-.42-1.45l-.69-2.33c-.09-.28-.17-.57-.26-.85-.15-.49-.3-1-.45-1.51s-.23-.8-.36-1.21c-.19-.66-.36-1.3-.51-1.94s-.25-1.08-.36-1.6c-.22-1.07-.39-2.12-.53-3.14-.08-.6-.14-1.2-.19-1.77A58.19,58.19,0,0,1,45.11,103c.15-1.08.29-2.09.39-3,.56-5.15,1.17-10,1.75-14.76,2.31-18.56,4.14-33.21.44-45.3a45.65,45.65,0,0,0-3.8-8.76c-.27-.5-.55-1-.83-1.47s-.57-1-.86-1.47l-1-1.57L40.83,26c-.11-.18-.21-.36-.32-.53-.31-.51-.61-1-.89-1.48s-.69-1.15-1-1.71-.51-.93-.75-1.39-.57-1.16-.81-1.73-.36-.91-.51-1.36c0-.15-.1-.3-.14-.45A8.69,8.69,0,0,1,36.22,16c0-.43-.07-.91-.1-1.39,0-1.19.82-1.29,1.57-2a3,3,0,0,0,1-2.2l0-7.45A2.91,2.91,0,0,0,35.84.05L14.3,0a2.89,2.89,0,0,0-2.84,2.94l0,7.44a3,3,0,0,0,1,2.26c.63.55,1.34.7,1.36,1.64a10.52,10.52,0,0,1-.31,3c-.75,2.72-2.64,5.91-4.63,9.28C6.32,30.88,3.42,35.77,2.1,41c-3.28,13-1.46,28.65.83,48.52.38,3.22.77,6.56,1.15,10,.06.61.14,1.26.23,2,.72,6.1,1.82,15.33-1.19,25.25-.26.85-.52,1.67-.77,2.47C.21,136.07-1.49,141.5,2,145.69c2.23,2.67,6.15,4.75,9.72,3.85.84-.22,1.4-1,2.16-1.17,1.4-.25,3.5,1.72,4.69,2.35a12.29,12.29,0,0,0,6.06,1.5c3.39,0,6.54.17,9.13-2.32.57-.54,1.44-2.21,2.17-2.35s1.53.76,2.08,1c3.09,1.35,6.54.05,8.77-2.22.17-.18.34-.36.5-.55s.35-.43.5-.64a8.77,8.77,0,0,0,1.39-3,12,12,0,0,0,.22-1.38,13.81,13.81,0,0,0-.15-3.29C49.18,137,49.1,136.57,49,136.08Z"/><path class="cls-2" d="M14.27,11.73l21.55,0A1.27,1.27,0,0,0,37,10.45V3a1.25,1.25,0,0,0-1.16-1.34l-21.55,0a1.26,1.26,0,0,0-1.17,1.33l0,7.45A1.26,1.26,0,0,0,14.27,11.73ZM34.61,2.88c0-.38.41-.68.91-.68s.91.3.91.68l0,7.68c0,.38-.41.68-.91.68s-.91-.31-.91-.68Zm-2.85,0c0-.38.41-.68.91-.68s.91.31.91.68l0,7.69c0,.37-.41.67-.91.67s-.91-.3-.91-.68Zm-3.4,0c0-.37.41-.68.91-.68s.91.31.9.68v7.69c0,.37-.41.68-.91.68s-.91-.31-.91-.69Zm-4.16,0c0-.37.41-.68.91-.68s.91.31.91.68l0,7.69c0,.37-.41.68-.91.68s-.91-.31-.91-.69ZM20,2.84c0-.38.41-.68.91-.68s.91.31.91.68l0,7.69c0,.37-.41.68-.91.68s-.91-.31-.91-.69Zm-3.4,0c0-.37.41-.68.91-.68s.91.31.9.69v7.68c0,.38-.41.68-.91.68s-.91-.31-.91-.68Zm-2.85,0c0-.37.41-.67.91-.67s.91.3.91.68l0,7.68c0,.38-.41.68-.91.68s-.91-.31-.91-.68Z"/><path class="cls-3" d="M7.37,60.4a27.25,27.25,0,0,1-3.5-.16c-.53-.06-2-.37-1.85.6S3.25,62,4.08,62.14a27.82,27.82,0,0,0,3.4.48,28.94,28.94,0,0,0,6.77-.32c.05,0,.08.05,0,.07A15.38,15.38,0,0,1,7.75,63.9a27.21,27.21,0,0,1-3.38-.13c-.58-.06-2.38-.61-2.13.56.21,1,1.29,1.15,2.13,1.32a25.45,25.45,0,0,0,3.38.47,28.55,28.55,0,0,0,6.72-.32s.09,0,0,.07a17.2,17.2,0,0,1-9.13,1.46c-.66,0-3.24-.8-3,.59.13.92,1.62,1,2.34,1.2a25.87,25.87,0,0,0,3.39.49,28.7,28.7,0,0,0,6.87-.31c.05,0,.08,0,0,.07a15.85,15.85,0,0,1-7.25,1.54A27.85,27.85,0,0,1,4,70.64c-.52-.07-.86,0-1,.58a.86.86,0,0,0,.4,1,7.24,7.24,0,0,0,1.74.41c.69.14,1.38.26,2.08.35a28.39,28.39,0,0,0,8.18-.18,0,0,0,0,1,0,.08A16,16,0,0,1,8,74.41a28.94,28.94,0,0,1-3.84-.3C3.58,74,3,74,3,74.74c0,.46.46.85.84,1.05a6.76,6.76,0,0,0,1.75.4c.65.13,1.31.23,2,.31a28.38,28.38,0,0,0,8-.2,0,0,0,0,1,0,.08,15.93,15.93,0,0,1-7.43,1.53,38,38,0,0,1-3.84-.3c-1.31-.15-.93,1-.33,1.71s2.49.85,3.54,1a28.37,28.37,0,0,0,8.58-.12,0,0,0,0,1,0,.08A15.47,15.47,0,0,1,9.44,81.8a26.38,26.38,0,0,1-3.55-.17c-.5,0-2.3-.56-2,.47s1.58,1.05,2.44,1.22a27.32,27.32,0,0,0,3.37.47,29.15,29.15,0,0,0,6.73-.33s.08.06,0,.08a15.53,15.53,0,0,1-6.78,1.53,28,28,0,0,1-3.55-.18c-.49-.06-2.44-.45-2,.68.29.8,1.68.93,2.38,1.08a27.66,27.66,0,0,0,3.39.48,28.42,28.42,0,0,0,6.77-.33c.05,0,.08.06,0,.08A15.5,15.5,0,0,1,10,88.41a27.41,27.41,0,0,1-3.51-.17c-.75-.08-2-.27-1.85.94.13,1,1.53,1.08,2.33,1.25a25.61,25.61,0,0,0,3.48.51,28.45,28.45,0,0,0,6.84-.32c.05,0,.08.06,0,.08a16.19,16.19,0,0,1-7.64,1.53c-1.3,0-2.55-.25-3.83-.36s-.72,1.36.08,1.67a17.46,17.46,0,0,0,3.94.74,28.59,28.59,0,0,0,7.73-.23c.05,0,.09,0,0,.07A16,16,0,0,1,10,95.65c-.66,0-1.32-.05-2-.1a14.25,14.25,0,0,0-1.94-.23c-1,0-.75,1.25-.11,1.67,1,.62,2.67.7,3.78.86a28.57,28.57,0,0,0,8.46-.14s.08.05,0,.07a16.18,16.18,0,0,1-7.71,1.53c-.66,0-1.32,0-2-.11A16.47,16.47,0,0,0,6.65,99c-1.24.05-.6,1.53.13,1.91a12.1,12.1,0,0,0,3.85.77,27.86,27.86,0,0,0,8-.2c.05,0,.08.06,0,.08a16.3,16.3,0,0,1-7.83,1.53c-.69,0-1.38-.06-2.08-.13a11,11,0,0,0-1.88-.23c-1,.09-.46,1.07-.08,1.55.67.84,2.42.88,3.45,1a28.48,28.48,0,0,0,8.79-.09s.08,0,0,.07a16,16,0,0,1-7.61,1.53c-1.3,0-2.63-.34-3.92-.33-1.06,0-1,1.12-.42,1.72.74.77,2.68.83,3.7,1a28.1,28.1,0,0,0,8.44-.15s.08.06,0,.08a15.38,15.38,0,0,1-6.58,1.53,26.4,26.4,0,0,1-3.45-.15c-.81-.08-2.23-.63-2.48.46a1.54,1.54,0,0,0,.31,1.35,3.39,3.39,0,0,0,1.53.51,28.83,28.83,0,0,0,3.57.57,28.46,28.46,0,0,0,7.2-.29c.05,0,.09.06,0,.08a15.93,15.93,0,0,1-7.4,1.53,28.91,28.91,0,0,1-3.83-.29c-.42-.06-.92-.28-1.3,0a1.36,1.36,0,0,0-.43,1.18c0,.9.15,1.74,1.17,2A78.87,78.87,0,0,0,23.8,119c3.18,0,6.37,0,9.54-.3,1.58-.13,3.16-.32,4.72-.59,1.09-.19,3.08-.15,4-.74a1.6,1.6,0,0,0-1.17-2.86,30,30,0,0,1-3.67.21,15.62,15.62,0,0,1-7-1.56,0,0,0,0,1,0-.08,28.43,28.43,0,0,0,7.37.3c1.11-.1,5.75-.22,4.89-2.16-.48-1.09-1.43-.75-2.43-.66a28.15,28.15,0,0,1-3.31.09,15.35,15.35,0,0,1-6.4-1.55,0,0,0,0,1,0-.08,28.18,28.18,0,0,0,7.28.31c1.08-.09,5.87-.24,5.12-2.16-.36-.93-1.7-.5-2.46-.43a25.55,25.55,0,0,1-3.39.09,15.31,15.31,0,0,1-6.35-1.55s0-.08,0-.08a28,28,0,0,0,8,.24,15.91,15.91,0,0,0,3.7-.69c.68-.27,1.33-1.23.6-1.82-.42-.33-1.14,0-1.62,0-.7.08-1.39.13-2.08.15A16.53,16.53,0,0,1,31,101.55s0-.08,0-.08a28.13,28.13,0,0,0,8,.24,13,13,0,0,0,3.82-.77c.62-.29,1.45-1.22.56-1.74-.49-.28-1.24,0-1.77,0q-1,.11-2.07.15a16.61,16.61,0,0,1-8.21-1.55,0,0,0,0,1,0-.08,28.74,28.74,0,0,0,7.35.3c1.07-.09,5.78-.3,5.53-2.06-.15-1-1.93-.42-2.61-.36a24.06,24.06,0,0,1-3.29.08A15.16,15.16,0,0,1,32,94.16a0,0,0,0,1,0-.08,28.39,28.39,0,0,0,7.19.32c.87-.07,5.63-.3,5.16-1.74-.33-1-1.73-.51-2.52-.45a25.78,25.78,0,0,1-3.29.07,15.23,15.23,0,0,1-6.23-1.54,0,0,0,0,1,0-.08,28.39,28.39,0,0,0,7.25.31c1.18-.1,5.56-.2,5.33-2.06-.13-1-1.64-.58-2.29-.53a26.09,26.09,0,0,1-3.31.09A15.17,15.17,0,0,1,33,86.92c-.05,0,0-.09,0-.08a28.21,28.21,0,0,0,7.73.27,20,20,0,0,0,3.71-.61c.58-.19,1.21-1.19.44-1.59-.43-.21-1.26.06-1.71.11-.66.06-1.33.1-2,.12a16.41,16.41,0,0,1-8-1.56s0-.09,0-.08a28.3,28.3,0,0,0,6.94.34c.88-.06,6.06-.34,5.58-1.81-.27-.83-2.08-.29-2.7-.24a25.66,25.66,0,0,1-3.28.07,15.23,15.23,0,0,1-6.24-1.54c-.05,0,0-.09,0-.08a28.43,28.43,0,0,0,7.37.31c1.28-.12,5.39-.22,5.36-2.12,0-1.06-1.44-.65-2.12-.58a27.24,27.24,0,0,1-3.5.13,15.41,15.41,0,0,1-6.58-1.56c-.05,0,0-.08,0-.08a28.3,28.3,0,0,0,7.06.34c1-.08,5.84-.25,5.54-1.92-.18-1-1.95-.44-2.6-.39a23.72,23.72,0,0,1-3.37.1,15.13,15.13,0,0,1-6.42-1.55s0-.08,0-.07a29,29,0,0,0,7.5.29c.7-.07,6-.43,5.17-1.92-.5-.93-1.87-.4-2.71-.33a24.24,24.24,0,0,1-3.3.07,15.06,15.06,0,0,1-6.27-1.54s0-.08,0-.08a28.22,28.22,0,0,0,7.4.31c.77-.07,6-.5,5.09-1.92-.51-.82-1.78-.39-2.56-.33a24.24,24.24,0,0,1-3.3.06,15,15,0,0,1-6.18-1.54s0-.08,0-.07a28.32,28.32,0,0,0,7.24.31c.83-.07,5.65-.27,5-1.89-.36-.89-1.81-.43-2.53-.37a24.36,24.36,0,0,1-3.31.06,15.19,15.19,0,0,1-6.19-1.53,0,0,0,0,1,0-.08,28.57,28.57,0,0,0,7.27.31,30.83,30.83,0,0,0,3.71-.6c.58-.12,1.73-.68,1.55-1.44s-1.9-.3-2.42-.25a25.85,25.85,0,0,1-3.41.1,15.11,15.11,0,0,1-6.48-1.55c-.05,0,0-.08,0-.07a29.1,29.1,0,0,0,7.16.32c.84-.07,5.85-.35,5.1-1.92-.41-.83-1.74-.41-2.45-.35a26,26,0,0,1-3.3.07,15.26,15.26,0,0,1-6.28-1.54,0,0,0,0,1,0-.08,28.35,28.35,0,0,0,7.75.26,11.1,11.1,0,0,0,3.64-.7c.62-.32,1-1.28.26-1.72-.43-.25-1.11,0-1.56,0-.72.09-1.45.14-2.18.17a16.7,16.7,0,0,1-8.32-1.54,0,0,0,0,1,0-.08,29,29,0,0,0,6.84.35c.89-.07,5.74-.22,5.24-1.82-.3-.95-2.1-.39-2.78-.33a26,26,0,0,1-3.3.08,15.16,15.16,0,0,1-6.35-1.55s0-.08,0-.08a28.31,28.31,0,0,0,6.88.35c.85-.06,6.14-.33,5.18-2.08-.47-.86-2-.39-2.73-.32a26.94,26.94,0,0,1-3.36.1,15.24,15.24,0,0,1-6.51-1.55s0-.08,0-.08a30.78,30.78,0,0,0,9,.16c1.15-.17,4.19-.82,3-2.5-.94-1.31-3.27-.5-4.58-.35-2.9.33-5.94.37-8.86.53q-4.77.26-9.54.24c-2.93,0-5.86-.09-8.78-.26-2.47-.15-4.86-.57-7.32-.76-1-.08-2-.1-3-.12-2.15-.05-1.93,2.45,0,2.85a26.39,26.39,0,0,0,3.41.48A28.69,28.69,0,0,0,15,44.8s.08.05,0,.07a15.33,15.33,0,0,1-6.7,1.53,26.44,26.44,0,0,1-3.56-.17c-.57-.06-2.3-.53-2.25.54s1,1.29,1.84,1.46a29.85,29.85,0,0,0,3.38.47,28.72,28.72,0,0,0,6.74-.33s.08.06,0,.08A15.85,15.85,0,0,1,7.29,50a27.84,27.84,0,0,1-3.76-.26c-.5-.07-.91-.2-1.16.34a.94.94,0,0,0,.24,1.07c.73.62,2.46.64,3.38.76a28,28,0,0,0,8.18-.18c.05,0,.08.06,0,.08a15.68,15.68,0,0,1-7.34,1.53,26.21,26.21,0,0,1-3.76-.27c-1-.14-1.08.63-.6,1.36.61.91,2,.91,3,1a28.23,28.23,0,0,0,8.31-.16c.05,0,.08.06,0,.08A15.71,15.71,0,0,1,6.63,56.9c-1.28,0-2.52-.21-3.78-.26-1,0-.85.81-.35,1.38.67.78,2.17.79,3.14.92A28.29,28.29,0,0,0,14,58.79c.05,0,.09.06,0,.08A15.53,15.53,0,0,1,7.37,60.4Z"/><path class="cls-4" d="M15.22,41.62q5,.33,10,.28c1.67,0,3.33,0,5-.11,3.83-.15,7.67-.38,11.48-.88.55-.07,5.42-.51,3.81-1.79-.85-.69-3.09.33-4.06.41a16.92,16.92,0,0,1-8.6-1.16,0,0,0,0,1,0-.08,27.64,27.64,0,0,0,9.89-.49c.77-.19,2.46-1,1.75-2s-1.89-.28-2.72-.15a26,26,0,0,1-3.42.31,15.33,15.33,0,0,1-6.63-1.18s0-.08,0-.08a28.36,28.36,0,0,0,7.19-.08c.75-.11,4.91-.63,3.79-2.28-.57-.84-1.89-.49-2.71-.39a26.24,26.24,0,0,1-3.31.19,15.31,15.31,0,0,1-6.45-1.36c-.05,0,0-.08,0-.08a38.13,38.13,0,0,0,6.32.2c.74-.06,5.08-.27,4.37-1.79-.43-.92-1.77-.44-2.52-.36a23.79,23.79,0,0,1-3.16.11,14.81,14.81,0,0,1-6-1.34,0,0,0,0,1,0-.08,28.78,28.78,0,0,0,6.36.19,8,8,0,0,0,2.8-.45c.73-.39.74-1,0-1.31s-2.12,0-3,0a15.29,15.29,0,0,1-6.47-1.37c-.05,0,0-.08,0-.08a28.35,28.35,0,0,0,5.29.27c.65,0,3.88-.1,2.86-1.54-.73-1-3-.51-4.09-.6a12.39,12.39,0,0,1-4.45-1.05c-.05,0,0-.09,0-.08a29.45,29.45,0,0,0,4.88.08c.66,0,2.91,0,2.3-1.22s-2.42-.91-3.55-1a14.84,14.84,0,0,1-4.15-1s0-.09,0-.08a30.48,30.48,0,0,0,4.38.11c.79,0,2.61.08,1.83-1.24-.66-1.09-1.92-.91-3-1.07a15.21,15.21,0,0,1-3.56-1s0-.09,0-.08c.76.08,4.94.79,4.59-.67-.23-1-1.66-.8-2.43-.81H22c-1.11,0-2.95-.37-3.89.33-.68.51-.57,1.24.28,1.3a23.57,23.57,0,0,0,3.94-.15s.07.06,0,.08a15.51,15.51,0,0,1-2.84.86,21.65,21.65,0,0,0-2.58.3c-.84.28-1.38,1.67-.33,2a8.28,8.28,0,0,0,2.49.13c.95,0,1.91,0,2.85-.13,0,0,.08.06,0,.08a14.46,14.46,0,0,1-4.11,1c-1.07.1-3-.35-3.5.88-.59,1.41,1.35,1.29,2.16,1.36a29.94,29.94,0,0,0,4.92-.06s.08.06,0,.08a14.51,14.51,0,0,1-5.42,1.08c-1.06,0-4-.77-3.64,1.17.16.92,1.41.76,2.17.83a36.91,36.91,0,0,0,6.48-.16c.05,0,.08.06,0,.08a14.71,14.71,0,0,1-5.7,1.32,18.77,18.77,0,0,1-3-.07c-.63-.08-1.51-.27-1.72.56-.36,1.37,3.42,1.31,4.24,1.37a26.36,26.36,0,0,0,5.82-.2,0,0,0,0,1,0,.08,16.86,16.86,0,0,1-8.61,1.24c-.9-.08-2.65-.82-3.14.28s.87,1.28,1.62,1.43a28.26,28.26,0,0,0,3,.41,38.42,38.42,0,0,0,6.07-.19c.05,0,.08.06,0,.08a16,16,0,0,1-7.46,1.32,16.36,16.36,0,0,1-3.76-.42c-.52-.14-.76-.32-1.19.15A1.5,1.5,0,0,0,7,33.12c.26,1,2.15,1.09,3,1.26a28.25,28.25,0,0,0,8.26.3c.05,0,.08.06,0,.08a17.23,17.23,0,0,1-9.14,1c-.78-.1-1.55-.23-2.32-.4-.53-.11-.94-.17-1.25.36-.66,1.16.37,1.71,1.32,2a27.9,27.9,0,0,0,3.4.64,29,29,0,0,0,6.84,0c.05,0,.08.06,0,.08a16.25,16.25,0,0,1-7.78,1.19A21,21,0,0,1,5.44,39c-.54-.15-1.42-.2-1.28.64.2,1.2,3.68,1.25,4.54,1.36Q11.94,41.41,15.22,41.62Z"/><path class="cls-4" d="M46.93,138.57a15.58,15.58,0,0,1-7-1.57s0-.08,0-.08a28.41,28.41,0,0,0,4.6.42c.85,0,2.7.44,2.71-.74a.86.86,0,0,0-.08-.55c-.34-.48-1.26-.3-1.76-.34a18.23,18.23,0,0,1-2.07-.24,13.51,13.51,0,0,1-3.88-1.28,0,0,0,0,1,0-.08,28.87,28.87,0,0,0,5.08.42c.48,0,1.64.17,2-.18s-.07-1-.45-1.27a7.62,7.62,0,0,0-2.51-.21,15.39,15.39,0,0,1-5.25-1.46,0,0,0,0,1,0-.08,29.53,29.53,0,0,0,5.23.42c.44,0,1.85.15,2.17-.17s0-.83-.22-1c-.56-.52-1.82-.24-2.54-.28a15,15,0,0,1-6.22-1.54s0-.08,0-.07a28.58,28.58,0,0,0,5.62.4c.62,0,1.88.14,2.32-.34a1,1,0,0,0-.25-1.46c-.37-.26-.73-.09-1.17-.07s-1,0-1.56,0a15.1,15.1,0,0,1-6.21-1.54s0-.08,0-.08a28.49,28.49,0,0,0,5.76.41l1.45-.09a6.44,6.44,0,0,0,.86.06c.66-.16.42-1,.19-1.46-.54-1-1.45-.6-2.43-.6a16,16,0,0,1-7.4-1.56,0,0,0,0,1,0-.08,29.39,29.39,0,0,0,6.35.38c.69,0,2,.09,2.49-.4a2,2,0,0,0,.33-1.92c-.62-2-2.84-1-4.45-1-5,.26-10.07.7-15.14.69-5.3,0-10.67-.38-15.95-.91-.84-.08-1.78.08-1.92,1.09-.07.57-.06,1.53.46,1.92s2,.37,2.68.41a29.49,29.49,0,0,0,6.5-.34c.05,0,.08.06,0,.08a14.45,14.45,0,0,1-5.6,1.47,22.65,22.65,0,0,1-3,0c-.69,0-1.54-.27-1.69.63-.3,1.79,2.4,1.49,3.53,1.51a30.65,30.65,0,0,0,5.15-.4s.08.06,0,.08A14.61,14.61,0,0,1,8.38,127c-1,.08-2,0-3,0a1,1,0,0,0-1,1.16c.15.82,1.32.68,2,.72a29.42,29.42,0,0,0,6.29-.35,0,0,0,0,1,0,.08A14,14,0,0,1,8.3,130a19.08,19.08,0,0,1-2.39.18c-.57,0-1.27-.17-1.82-.09a.72.72,0,0,0-.59,1,1.24,1.24,0,0,0,.92.52,11.61,11.61,0,0,0,2.5,0,31,31,0,0,0,4.19-.4c.05,0,.08.06,0,.08a14.94,14.94,0,0,1-4,1.28,17.37,17.37,0,0,1-2.16.22,13.91,13.91,0,0,0-1.57-.06c-1,.2-.71,1.39.11,1.63a7.39,7.39,0,0,0,2.3,0A27.23,27.23,0,0,0,10,134a0,0,0,0,1,0,.08,14.28,14.28,0,0,1-4.83,1.4c-.77.09-1.55,0-2.31.09a.74.74,0,0,0-.53,1.22c.38.59,1.39.41,2,.42a28.8,28.8,0,0,0,5.16-.4,0,0,0,0,1,0,.08,13.21,13.21,0,0,1-3.78,1.24,14.18,14.18,0,0,1-2,.24c-.43,0-.91-.12-1.33-.07a1,1,0,0,0-.38,1.9,4.1,4.1,0,0,0,2.2.15A30.43,30.43,0,0,0,8.22,140a0,0,0,0,1,0,.08,12.3,12.3,0,0,1-4,1.28c-.45.08-1.34,0-1.68.3a.59.59,0,0,0,.17,1,4.44,4.44,0,0,0,1.82.08,27.76,27.76,0,0,0,4.17-.39,0,0,0,0,1,0,.08,11,11,0,0,1-2.35.91c-.78.22-1.71.23-2.45.51-1,.4-.06,1.28.64,1.26a28.44,28.44,0,0,0,3.92-.39c.05,0,.08.06,0,.08-.86.48-2.6.65-2.57,1.91s1.88,1.61,2.9,1.71a2.73,2.73,0,0,0,2.34-.58c.48-.47.83-1.1.25-1.6a15,15,0,0,1-1.88-1.68,0,0,0,0,1,.05-.07c.64.4,1.84,1.29,2.61,1s1.16-1,.55-1.44c-.8-.63-1.6-1-2.08-1.94a.09.09,0,0,1,.15-.11,3.73,3.73,0,0,0,1.78,1.09.66.66,0,0,0,.43-1.18,11.11,11.11,0,0,1-1.88-1.61c-.05-.07,0-.19.11-.13.5.37,2.22,1.65,2.39.33.09-.67-.71-1-1.13-1.31a3.35,3.35,0,0,1-.91-1.23.08.08,0,0,1,.12-.09c.33.3,1.19,1.13,1.71.77s-.08-1-.44-1.24a5.79,5.79,0,0,1-1.43-1.61c-.05-.07.06-.14.11-.09a8.18,8.18,0,0,0,1.13,1c.3.19.74.46,1,.13.42-.49-.29-.82-.6-1.07a5,5,0,0,1-1-1.35.05.05,0,0,1,.08-.06c.31.32,1,1.09,1.5,1.12,1.32.06-.68-2.33-.85-2.59a0,0,0,0,1,.07,0c.25.23.95,1.16,1.37,1s.17-.79,0-1a3.64,3.64,0,0,1-.87-1.27c0-.07.08-.1.12,0,.24.37.87,1.23,1.3.6.57-.86-.59-1.6-.92-2.24a.09.09,0,0,1,.16-.1c.23.31.67,1,1.12.62.65-.51-.42-1.42-.63-1.88,0,0,0-.1.08-.06.27.33.63.76,1,.33s0-1.12-.26-1.55c0,0,0-.09.06,0a.44.44,0,0,0,.8-.12c.16-.45-.34-.75-.37-1.18a.06.06,0,0,1,.11,0c.11.39.39.27.56,0a7.26,7.26,0,0,0,.4-1.59,10.32,10.32,0,0,0,.37-2.59c0-.26-.07-1.23.46-1.1.84.2-.14,2-.3,2.47a19.34,19.34,0,0,0-.62,2.63c-.4,2-.79,3.92-1.1,5.89-.62,3.92-1.08,8.09-.14,12a8.75,8.75,0,0,0,6.87,7,12.88,12.88,0,0,0,1.88.22c1,.05,2,.09,2.41-1,.34-.85-.42-1.34-1-1.86,0,0,0-.08.05-.06a20.51,20.51,0,0,0,3.11,1.46c.78.25,2.26.45,3-.08a1.18,1.18,0,0,0,.41-1.32c-.25-.42-1-.4-1.38-.5a9.56,9.56,0,0,1-3.67-1.77s0-.07,0,0a8,8,0,0,0,4.72,1,2.89,2.89,0,0,0,1.75-.62c.31-.27.73-.8.47-1.21s-1.22-.43-1.66-.57a10.49,10.49,0,0,1-3-1.4c-.1-.07,0-.21.1-.16a8,8,0,0,0,4.19.65,1.3,1.3,0,0,0,1.13-.78c.5-1-.55-1.08-1.29-1.28a8.33,8.33,0,0,1-2.57-1.22s0-.12,0-.1a6,6,0,0,0,3.66.3c.62-.23,1-1.46.22-1.73-.4-.15-1.07,0-1.53-.15a6.36,6.36,0,0,1-1.52-.64s0-.11,0-.09a5.4,5.4,0,0,0,2.11.22c.57-.06,1.08-.13,1.25-.7.05-.17.13-.55,0-.69s-.5,0-.78,0a5.91,5.91,0,0,1-2.44-.52c-.09,0-.06-.15,0-.14a7.31,7.31,0,0,0,1.81.07c.5,0,1.22-.1,1.41-.62a.64.64,0,0,0-.57-.94,16,16,0,0,1-2.17-.17,0,0,0,0,1,0-.08,11.45,11.45,0,0,1,1.44-.28,1.06,1.06,0,0,0,1-1c.06-.38,0-1-.51-1-.2,0-.55.15-.78.15a3.18,3.18,0,0,1-1-.16.05.05,0,0,1,0-.1c.63,0,1.49,0,1.73-.66.12-.31.19-.91-.12-1.16s-1.32-.1-1.81-.23c0,0,0,0,0,0,.42,0,1.22-.09,1.5-.43.48-.57,0-1.18-.66-1.08a1.77,1.77,0,0,1-.85-.11s0-.07,0-.08a2,2,0,0,0,1.1-.52c.31-.42,0-.83-.47-.78a4.77,4.77,0,0,1-.76-.07,0,0,0,1,1,0,0,2.16,2.16,0,0,0,1-.33c.71-.69-.74-.64-1.06-.72a.07.07,0,0,1,0-.13c.64-.16,1-.34,1-1a5.23,5.23,0,0,0-.76-2.5c-.14-.32-.7-1.53.13-1.4s.56,1.49.58,2a15.6,15.6,0,0,0,.75,3.47c.69,2.57,1.41,5.14,2,7.74a48.68,48.68,0,0,1,1.06,7.4c.11,2-.37,4.84,1.46,6.23,1.16.88,2.52.54,3.77.07.41-.15.7-.22.71-.71,0-1.16-1.68-1.31-2.47-1.76a0,0,0,0,1,0-.08,26.23,26.23,0,0,0,2.79.34c.59,0,1.7.21,2.13-.31.79-1-1.46-1.07-1.9-1.17a13.16,13.16,0,0,1-3.24-1.15,0,0,0,0,1,0-.08c.87.14,6.72,1.13,6.76-.12,0-.93-2.31-.81-3-1a11.62,11.62,0,0,1-3.29-1.16,0,0,0,0,1,0-.08,29.68,29.68,0,0,0,4.52.42c1,0,2.24.3,2.21-1C48,138.73,47.62,138.58,46.93,138.57Z"/></g></g></svg>